<?xml version="1.0" standalone="no"?>
<svg viewBox="-1300 -200 3350 3350" style="width: 585px; height: 585px; justify-content: center; align-self: center; transform: scale(1, 1);" xmlns="http://www.w3.org/2000/svg"><g transform="rotate(360 634.8668823242188 1363.479881286621)"><g transform="translate(-276 479)"><path id="_Skin" data-name="âœ‹ Skin" d="M258.573,2209.812h-.009a236.614,236.614,0,0,1-67.014-9.755A223.257,223.257,0,0,1,160.3,2188.2a199.151,199.151,0,0,1-28.363-16.224,17.91,17.91,0,0,1-6.968-7.561,32.672,32.672,0,0,1-3.223-10.994,50.338,50.338,0,0,1,1.087-17.915c1.439-5.832,3.815-10.572,6.692-13.345,7.88-68.008,20.827-133.787,38.482-195.511-.2-2.422-.364-5.111-.495-7.99-8.814-8.654-13.594-20.577-15.042-37.521a.909.909,0,0,1,.188-.808c1.146-1.458,6.76-1.978,11.631-1.978,1.16,0,2.214.032,2.89.088.063-.207.414-.312,1.04-.312,3.779,0,17.328,3.714,34.482,8.417,13.384,3.669,28.551,7.827,43.074,11.33,16.851,4.064,29.355,6.4,38.226,7.13.168.014.339.021.511.021,2.829,0,5.984-1.924,9.379-5.719a70.086,70.086,0,0,0,6.618-9.155l.007-.01A11.564,11.564,0,0,1,302,1888L178.758,1859.65l-2.131-.185-.447-.039-.213-.019c-2.111-.184-4.738-.412-5.459-.469,1.217-12.27,2.423-24.8,3.59-36.911l.01-.108,0-.043c3.115-32.345,6.336-65.791,10.166-98.714,4.3-36.991,8.912-69.181,14.092-98.408a980.927,980.927,0,0,1,21.838-96.667c4.594-16.229,9.646-32.125,15.018-47.247,5.64-15.877,11.826-31.452,18.388-46.29-5.438-12.783-11.834-25.356-18.018-37.514-8.049-15.823-16.372-32.184-22.654-49.157-5.485-15.926-10.305-32.414-14.737-50.407-3.943-16.009-7.482-32.836-10.819-51.444-6.192-34.529-10.687-69.87-15.035-104.048l0-.016,0-.033c-1.894-14.891-3.853-30.288-5.914-45.3a33.319,33.319,0,0,1-7.247-7.659,86.123,86.123,0,0,1-5.691-9.66l-9.421,2.269c-.187,14.815-3.305,17.624-8.993,17.624a10.873,10.873,0,0,1-6.957-2.17c-2.527-2-4.456-5.483-5.9-10.657l-5-18.415-4.672,18.5a16.1,16.1,0,0,1-4.276,7.709,8.831,8.831,0,0,1-6.039,2.483,9.443,9.443,0,0,1-6.169-2.431,15.176,15.176,0,0,1-4.391-7.021c-1.332-10.589-2.859-21.417-4.337-31.889l-.005-.037c-2.655-18.818-5.4-38.275-7.184-57.5-.961-10.355-1.571-19.794-1.865-28.856-.33-10.178-.257-19.617.226-28.856A945.542,945.542,0,0,1,10.9,712.2,822.594,822.594,0,0,1,.029,588.11c-.186-21.029.538-41.9,2.153-62.036,1.67-20.823,4.333-41.366,7.915-61.061,6.437-40.184,19.368-83.647,37.394-125.69A594.439,594.439,0,0,1,79.4,275.661,533.265,533.265,0,0,1,119.54,215.9a438.227,438.227,0,0,1,47.921-52.534c8.7-8.049,17.7-15.624,26.742-22.515a325.171,325.171,0,0,1,28.523-19.459A290.612,290.612,0,0,1,252.974,105.4a265.326,265.326,0,0,1,31.92-12.1,250.622,250.622,0,0,1,33.536-7.791,247.428,247.428,0,0,1,35.1-3.069l-1.425.4-.712.2-1.531.43a340.483,340.483,0,0,0,34.92-8.964l1.22-.3.207-.051c4.791-1.188,9.316-2.309,12.793-4.6a13.343,13.343,0,0,0,4.31-4.452,16.584,16.584,0,0,0,2.08-7.1l.125-1.833.057-.845c3.011-44.139,3.011-44.139,38.869-50.426l.051-.009c3.584-.628,7.646-1.341,12.062-2.161A126.349,126.349,0,0,1,482.237,0c12.144,0,22.973,1.963,32.187,5.833a51.512,51.512,0,0,1,24.6,20.689c4.078,6.816,5.783,14.572,7.433,22.074.851,3.872,1.731,7.871,2.925,11.7,1.919,3.439,8.9,5.34,14.517,6.868l.28.076A168.159,168.159,0,0,0,586.8,72.385c7.779,1.268,15.786,2.166,23.28,2.949h.624a150.776,150.776,0,0,1,18.66,1.144A139.5,139.5,0,0,1,646.81,79.8a136.2,136.2,0,0,1,16.306,5.327,140.286,140.286,0,0,1,15.233,7.167,160.438,160.438,0,0,1,27.527,19.182A214.612,214.612,0,0,1,729.949,136a310.8,310.8,0,0,1,21.18,28.528c6.241,9.425,12.4,19.626,18.843,31.185,11.913,21.388,22.587,43.543,32.911,64.969,6.191,12.849,12.038,24.985,17.992,36.645,5.19,10.329,10.236,21.143,15.579,32.591,10.864,23.279,22.1,47.346,35.552,69.389a249.33,249.33,0,0,0,21.982,30.983,173.526,173.526,0,0,0,12.564,13.453,140.923,140.923,0,0,0,13.811,11.672c13.914-11.264,28.152-22.487,41.921-33.342l.006,0c24.52-19.329,49.874-39.317,73.965-59.983,12.96-11.118,24.554-21.558,35.444-31.918,12.207-11.614,23.226-22.834,33.686-34.3a4.08,4.08,0,0,1,3.131-1.281c2.144,0,4.579,1.165,6.728,2.193a27.857,27.857,0,0,0,2.7,1.184c.869-24.253,7.453-48.2,13.821-71.36,2.691-13.261,6.534-22.581,11.751-28.49a23.658,23.658,0,0,1,8.789-6.392,27.986,27.986,0,0,1,10.925-1.992,59.6,59.6,0,0,1,14.923,2.213,294.48,294.48,0,0,1,25.327-51.644c9.666-15.361,20.21-28.107,31.339-37.887a49.235,49.235,0,0,1,8.428-7.266c3.482-2.325,6.611-3.554,9.047-3.554a5.266,5.266,0,0,1,4.255,1.9c1.167,1.406,1.875,3.6,2.1,6.529a84.627,84.627,0,0,1-3.617,17.077c-1.74,5.639-3.921,11.341-6.031,16.857l0,0c-1.916,5.008-3.9,10.185-5.554,15.328-1.539,3.7-3.034,7.516-4.616,11.554l-.006.015c-5.129,13.089-10.432,26.624-17.838,37.826.6.214,1.229.428,1.781.617,3.929,1.348,7.991,2.741,11.41,5.735l1.9-2.14a42.966,42.966,0,0,1,12.725,12.967,51.4,51.4,0,0,1,7.158,17.767c2.546.965,3.481,3.095,4.439,5.778l4.673,10.237,1.323-3.061c1.868,2.591,3.656,4.9,5.384,7.139l.012.016c4.721,6.106,8.45,10.928,9.924,16.458a20.37,20.37,0,0,1,.308,9,39.5,39.5,0,0,1-4.2,11.32l5.763-1.233c.5,1.511,1.012,2.973,1.587,4.589a32.774,32.774,0,0,1,3.6,15.355,26.106,26.106,0,0,1-1.082,6.793,24.675,24.675,0,0,1-2.693,5.959,25.588,25.588,0,0,1-21.974,11.827,30.273,30.273,0,0,1-8.572-1.267,36.193,36.193,0,0,1-8.818-4,45.033,45.033,0,0,1-4.45,18.6,49.41,49.41,0,0,1-4.919,8.162,52.172,52.172,0,0,1-6.4,7.133,53.694,53.694,0,0,1-16.28,10.369,51.18,51.18,0,0,1-19.339,3.818,50.112,50.112,0,0,1-5.85-.343c-.1.453-.194.915-.284,1.361v.006c-.659,3.294-1.281,6.4-5.716,6.4-.269,0-.553-.012-.842-.034a239.365,239.365,0,0,1-17.169,25.073c-7.529,9.868-16.46,20.707-26.543,32.214-10.431,11.9-21.691,24.058-33.468,36.125-12.487,12.794-25.253,25.177-37.943,36.8-13.643,12.5-27.09,24.023-39.968,34.251a471.074,471.074,0,0,1-39.543,28.467c-27.8,17.685-50.688,26.654-68.016,26.657a44.5,44.5,0,0,1-6.568-.47,109.253,109.253,0,0,1-13.958.9,120.442,120.442,0,0,1-47.025-9.955,168.319,168.319,0,0,1-42.079-26.2,225.509,225.509,0,0,1-34.951-36.954,245.328,245.328,0,0,1-14.121-20.79,233.126,233.126,0,0,1-11.521-21.415c-1.411,13.544-2.339,26.589-2.757,38.772-.4,11.7-.345,23.023.167,33.645a292.656,292.656,0,0,0,7.7,55.376,287.72,287.72,0,0,0,15.181,45.268c6,14.177,12.727,27.735,19.853,42.089,7.606,15.322,15.47,31.163,23.167,49.214a510.324,510.324,0,0,1,21.877,61.9c2.068,1,3.358,2.367,3.634,3.841a4.632,4.632,0,0,1-1.533,4,71.274,71.274,0,0,0,2.029,9.1,59.309,59.309,0,0,1,2.233,11,19.892,19.892,0,0,1-.288,5.306,15.14,15.14,0,0,1-1.979,5.054,1.868,1.868,0,0,1-1.886,1.564,2.809,2.809,0,0,1-2.067-1.005l-8.67,4.516a106.6,106.6,0,0,1,2.967,25.856c.055,8.761-.6,17.756-1.233,26.455-.781,10.722-1.588,21.809-1.054,32.437-.089,13.669-.726,27.718-1.893,41.755-1.112,13.379-2.743,27.193-4.847,41.058a774.957,774.957,0,0,1-16.868,80.429c-6.224,23.779-13.952,49.573-23.626,78.854-8.625,26.106-17.97,52.524-27.007,78.072l-.006.017c-8.925,25.232-18.154,51.324-26.7,77.128-9.579,28.942-17.256,54.439-23.467,77.949a561.393,561.393,0,0,0-13.709,56.116c-3.289,17.206-5.859,34.776-7.857,53.717-3.724,35.314-4.847,69.537-6.035,105.769v.019c-.7,21.345-1.423,43.416-2.726,66.2-1.38,14.588-3.514,29.867-6.344,45.412-2.52,13.843-5.679,28.372-9.39,43.184-7.382,29.463-15.912,56.078-22.518,75.973.452,1.985,1.14,4.3,1.747,6.34l.006.02.2.665c.153.015.233.046.236.093.05.637-13.949,4.237-30.157,8.406l-.007,0c-24.34,6.26-54.632,14.05-57.053,16.717a16.269,16.269,0,0,0,.008,9.164,7.2,7.2,0,0,0,2.406,3.476,8.014,8.014,0,0,0,4.956,1.456,14.531,14.531,0,0,0,1.63-.1c8.8-1,21.141-3.658,36.681-7.9,12.769-3.49,24.47-7.158,31.461-9.349l.007,0c3.5-1.1,5.619-1.762,5.84-1.762.011,0,.017,0,.019.005s0,.007-.008.013c.408.817,1.355,1.215,2.9,1.215a15.641,15.641,0,0,0,1.589-.1l.246-.026.016,0c.368-.038.687-.072.911-.072s.334.032.356.1c.043.135-.261.424-.985.937-2.774,2.019-4.5,5.479-6.174,8.826-.669,1.339-1.3,2.6-1.989,3.759a106.1,106.1,0,0,1-1.394,16.259c-1.013,7.349-2.061,14.947-.924,22.63a45.743,45.743,0,0,0,1.639,4.668,17.041,17.041,0,0,1,1.524,5.438,9.56,9.56,0,0,1-2.051,5.916,79.952,79.952,0,0,1,14.423,10.165,46.288,46.288,0,0,1,10.66,14.158,10.882,10.882,0,0,0,5.272,2.475h.006c.46.115.936.233,1.4.37a10.314,10.314,0,0,1,4.385,2.294,10.112,10.112,0,0,1,2.568,3.72A16.853,16.853,0,0,1,666,2004.2a22.681,22.681,0,0,1,5.492,1.648,15.945,15.945,0,0,1,4.239,2.794c2.373,2.182,4.2,5.175,5.734,9.42a40.524,40.524,0,0,0,5.39,10.728,43.663,43.663,0,0,0,8.029,8.531c5.778,4.727,13.089,8.558,22.352,11.714,17.16,5.846,38.193,8.328,58.534,10.727l.017,0c10.064,1.187,19.571,2.309,28.687,3.813a149.7,149.7,0,0,1,25.051,5.96c7.963,2.782,14.009,6.163,18.484,10.335a28.534,28.534,0,0,1,9.005,16.943,41.4,41.4,0,0,1,6.426,10.064,11.391,11.391,0,0,1,.846,7.236c-1.54,5.928-9.394,9.062-19.337,13.029l-1.854.741c-8.677,4.095-20.048,7.82-33.8,11.071a441.132,441.132,0,0,1-44.814,7.864c-16.01,2.052-33.377,3.631-51.619,4.692-17.756,1.032-36,1.556-54.215,1.556a794.268,794.268,0,0,1-80.4-3.812c-12.347-1.287-23.646-2.882-33.582-4.74a195.733,195.733,0,0,1-26.437-6.605,18.658,18.658,0,0,1-7.821,9.423,22.24,22.24,0,0,1-11.37,2.759,45.615,45.615,0,0,1-14.243-2.583c-4.557-1.1-9.138-2.237-13.569-3.337l-.1-.024c-8.54-2.122-17.371-4.316-26.276-6.289-16.677-3.556-27.789-6.789-30.186-18.85-1.794-8.909-1.736-18.822-1.679-28.408l0-.394q.007-1.273.013-2.539c-.109-7.559.159-12.238,1.879-15.309,1.738-3.1,4.941-4.539,11.053-4.96a101.983,101.983,0,0,1-6.377-12.477,76.216,76.216,0,0,1-3.849-11.514,61.543,61.543,0,0,1-1.543-20.731,79.6,79.6,0,0,1,4.291-18.657c2.085-6,4.722-11.984,7.272-17.767l0-.005c3.693-8.376,7.512-17.037,9.937-26.292a78.7,78.7,0,0,0,2.448-14.47,71.64,71.64,0,0,0-.633-15.935c-10.655-11.1-14.864-32.174-18.577-50.771v-.005c-1.456-7.29-2.83-14.175-4.491-19.989l.778-1.6,1.256-2.578,0-.006c16.654-34.175,33.876-69.514,46.591-106.271a7.5,7.5,0,0,0-.994-6.887,7.611,7.611,0,0,0-3-2.6,8.708,8.708,0,0,0-3.816-.874,8.064,8.064,0,0,0-4.092,1.074,6.834,6.834,0,0,0-2.853,3.257c-6.579,14.249-13.825,28.273-20.833,41.835-9.172,17.749-18.654,36.1-26.722,55.122-.592.993-1.388,2.362-2.23,3.813-4.327,7.448-12.38,21.31-21.052,33.1-10.58,14.39-19.106,21.688-25.339,21.69a7.179,7.179,0,0,1-3.144-.7,171.622,171.622,0,0,0-15.075,19.318,85.361,85.361,0,0,0-8.931,17.5c-4.316,11.784-5.77,24.53-6.823,42.564-.362,14.69,4.038,28.539,8.293,41.931,9.092,30.357,19.145,59.369,29.88,86.229a43.3,43.3,0,0,1,15.561,10.13,10.261,10.261,0,0,1,2-.212c1.333,0,2.978.324,3.248,1.87a84.518,84.518,0,0,1,4.8,15.066,58.733,58.733,0,0,1,1.327,13.446,46.554,46.554,0,0,1-1.8,11.907,44.538,44.538,0,0,1-4.574,10.453c-7.273,12.138-20.718,21.989-39.961,29.278a183.156,183.156,0,0,1-27.634,7.847,267.813,267.813,0,0,1-28.775,4.252C273.312,2209.453,265.932,2209.812,258.573,2209.812ZM540,1073.047c-7.159,4.555-13.9,8.6-20.046,12.038,1.157,12.5,1.739,25.265,1.781,39.024.037,12.251-.36,25.018-1.212,39.031-1.582,26.006-4.533,52.37-7.387,77.866l0,.018c-2.071,18.5-4.212,37.624-5.8,56.35-1.774,20.973-2.646,39.255-2.669,55.893a7.4,7.4,0,0,0,5.611,2.437,9.046,9.046,0,0,0,5.684-2.044,7.32,7.32,0,0,0,2.731-5.419c1.6-10.5,3.344-21.289,5.029-31.722l.022-.136c4.559-28.228,9.274-57.418,12.111-86.12,1.1-9,2.3-18.162,3.463-27.022l.036-.274,0-.033c1.99-15.164,4.048-30.844,5.673-46.292,1.825-17.341,2.9-32.529,3.281-46.431a62.463,62.463,0,0,0-.322-18.791,44.854,44.854,0,0,0-2.784-9.382A42.172,42.172,0,0,0,540,1073.047ZM175.493,456.874h0c-7.124,34.958-15.086,76.319-20.118,118.038-5.286,43.817-6.777,83.094-4.558,120.075l9.844.981a216.666,216.666,0,0,1,9.153-27.354c3.58-8.9,7.62-17.782,11.527-26.369,7.417-16.3,15.086-33.156,19.974-50.941A110.706,110.706,0,0,0,204,569.631a143.545,143.545,0,0,0-1.072-21.265c-1.687-14.069-5.1-28.2-8.406-41.869l0-.008c-3.858-15.961-7.847-32.466-9.133-49.031l-9.894-.584Z" transform="translate(267 -19.002)" fill="#d08b5b"></path><path id="_Shoes" data-name="ðŸ‘Ÿ Shoes" d="M134.459,139.442A235.073,235.073,0,0,1,80.1,133.011a235.8,235.8,0,0,1-52.045-19.044c-5.38-2.781-10.633-5.771-15.615-8.889l-1.5-.948-1.256-.8-.631-.411c-2.774-1.836-4.34-3.419-5.4-5.466L3.5,97.135l-.079-.165-.06-.173c-.275-.807-.533-1.645-.767-2.492l-.178-.661-.171-.667C1.14,88.572.719,84.583.439,75.9L.319,72,0,62.386l5.727,7.727C8,73.174,11.012,75.806,16.483,79.5l2.3,1.519,4.476,2.943.129.086A171.781,171.781,0,0,0,41.316,94.5a206.157,206.157,0,0,0,19.9,8.74,199.032,199.032,0,0,0,34.231,9.328,199.424,199.424,0,0,0,35,3.117c30.022,0,58.778-6.9,83.158-19.952l1.318-.715,3.517-2.111,1.094-.666c7.055-4.332,10.967-7.455,13.952-11.139l.239-.3.237-.3.944-1.225,1.545.058c.084,0,.169,0,.251,0a5.529,5.529,0,0,0,4.054-1.688c1.548-1.59,2.356-4.143,2.275-7.189l-.011-.3L241.958,46.6l6.926,22.55a45.559,45.559,0,0,1,2.136,14.525,35.47,35.47,0,0,1-2.787,13.03,37.488,37.488,0,0,1-7.517,11.24,51.681,51.681,0,0,1-12.053,9.155A187.309,187.309,0,0,1,183.44,133.9,215.4,215.4,0,0,1,134.459,139.442ZM533.5,84.1c-22.416,0-45.121-.906-67.483-2.692-11.158-.9-22.389-2.023-33.38-3.347l-3.681-.452-4.373-.555-4.775-.576-1.249-.158-1.235-.165a63.879,63.879,0,0,1-13.5-3.029,29.287,29.287,0,0,1-9.606-5.726l-.312-.282-.428-.4a4.016,4.016,0,0,0-2.794-1.063c-1.942,0-4.065,1.251-4.107,3.272l0,.166.01.189a6.931,6.931,0,0,1-1.6,5.265,8.644,8.644,0,0,1-5.049,2.6,18.134,18.134,0,0,1-3.226.265,40.61,40.61,0,0,1-7.847-.916c-1.7-.341-3.488-.763-5.459-1.29l-1.357-.373-1.861-.539-.814-.241L355.3,72.829l-5.023-1.38c-1.879-.521-3.944-1.1-6.7-1.881l-14.308-4.041-3.459-.96c-3-.827-5.559-1.512-8.292-2.223l-1.3-.336-3.137-.609-1.12-.229-1.011-.218c-4.888-1.09-8.3-2.339-10.218-5.195a13,13,0,0,1-1.846-5.219,56.422,56.422,0,0,1-.575-8.2l-.016-1.186-.565-5.1L297.39,33.1c-.4-3.375-.773-6.139-1.163-8.7l-.238-1.522-.082-.5-.316-1.884c-.008-.048-.069-.332-.161-.761-.15-.7-.4-1.863-.519-2.473-.265-1.346-.457-2.538-.587-3.646a15.392,15.392,0,0,1,.3-6.563A5.148,5.148,0,0,1,298.91,3.3l.235-.023.086-.005L299.408,0l4.331,2.759c12.14,7.736,24.057,14.766,35.42,20.895,11.647,6.282,23.191,11.876,34.312,16.627A333.31,333.31,0,0,0,407.152,52.63a285.448,285.448,0,0,0,33.527,8.061,366.808,366.808,0,0,0,60.54,4.62c7.323,0,15.075-.171,23.04-.507l3.6-.162,2.977-.146c17.636-.9,33.967-2.322,67.208-5.849l11.812-1.26L624.6,55.465l6.278-.836c28.868-3.877,46.209-6.753,63.982-10.613l1.985-.435.055-.04a19.306,19.306,0,0,1,1.84-1.147l.688-.386c1.881-1.047,2.562-1.564,2.915-2.21l.046-.09.889-1.812,2.739.191.044-.024c.557-.305,1.136-.614,1.723-.916l.882-.447.9-.44.372-.18L711,35.887l1.145-.22c2.086-.417,4.111-.905,7.223-1.74l2.423-.658.887-.243.871.3a11.6,11.6,0,0,1,4.395,2.591,8.4,8.4,0,0,1,2.273,3.693,7.962,7.962,0,0,1,.119,4.01,9.743,9.743,0,0,1-1.952,3.966l-.177.217-.131.151-.015.144c-.226,1.533-1.236,2.823-3.178,4.061l-.256.159-.381.227-.312.177-.113.153a6.412,6.412,0,0,1-.889.927l-.256.208-.269.2-.119.079-2.411,1.56-.8.5a22.485,22.485,0,0,1-4.577,2.311l-.328.109-.018.018A33.191,33.191,0,0,1,702.724,65.7a100.362,100.362,0,0,1-17.249,4.559l-1.43.267-.715.13-2.164.387c-24.16,4.326-48.875,7.621-73.46,9.793C583.169,83,558.2,84.1,533.5,84.1Z" transform="translate(392 2044.738)" fill="#fff"></path><path id="_Top" data-name="ðŸ‘• Top" d="M576.616,0,615.6,4.261l2.324.262c15.869,1.822,26.945,3.824,37.616,7.245C669,16.081,680.409,22.43,690.22,31.579Q763.6,99.5,849.842,299.019l1.62,3.752.438.8.628,1.135c6.65,11.887,18.108,28.6,30.9,45.43l1.252,1.642,1.841,2.4,1.168,1.509c5.241,6.749,10.239,12.9,14.358,17.7l.9,1.042,1.206,1.376.779.875q1.14,1.273,2.105,2.3l.315.333.616.64.092-.039,1.029.824.158-1.338,3.728-1.785c31.386-15.03,62-34.805,93.47-59.735l1.523-1.21c26.117-20.807,51.69-44.084,83.527-75.309l8.959-8.8,4.336,10.044c16.4,37.986,38.565,62.476,67,66.887l.864.128,16.935,2.374L1175.819,323.3l-1.57,1.3c-15.78,13.063-28.887,25.186-53.049,48.666l-4.927,4.8-10.836,10.57c-9.259,9.019-15.42,14.957-21.422,20.61l-1.468,1.38-4.65,4.337-2.871,2.562c-27.169,24.2-46.95,40.775-67.306,55.78l-2.237,1.641-1.495,1.088c-26.841,19.466-52.67,34.442-79.187,45.257l-1.509.61-.784.283-.76.264a85.751,85.751,0,0,1-13.2,3.173l-.6.109-5.011.888c-1.174.212-2.147.4-3.06.578l-.6.122-1.325.279-1.676.013c-28.154.085-53.987-8.67-79.294-25.369l-1.3-.864c-17.941-12.016-33.975-26.484-55.957-49.3l-2.407-2.508-2.4-2.517-12.292-13-.192,1c-6.218,32.634-10.029,70.569-8.148,88.935l.059.551.08.685.118,1.339c1.815,19.731,6.932,39.563,15.235,60.585,6.54,16.557,14.654,33.084,26.125,53.909l.629,1.14,1.893,3.412.086.16a451.148,451.148,0,0,1,41.42,112.86l.392,1.8.357,1.652-.387,1.646c-2.823,12.008-11.273,21.441-24.4,30.029l-.6.39-1.2.765c-16.793,10.385-34.979,16.837-63.048,23.864-93.16,23.939-182.08,31.965-266.283,21.782-42.034-5.463-85.419-13.715-133.19-24.989l-2.475-.586-7.043-1.686c-32.973-7.953-64.117-16.239-110.309-29.176l-9.234-2.592-16.134-4.55-2.4-.725-6.56-1.942-2.373-.715-.878-.269-1.536-.479-1.605-.514a105.723,105.723,0,0,1-14.119-5.542l-1.844-.919-.942-1.036a1.463,1.463,0,0,0-.271-.219l-.1-.062-3.365-2.006-.56-7.852c-.226-3.1-.46-6.176-.739-9.714l-.271-3.411-2.54-31.177c-.21-2.646-.4-5.1-.581-7.451l-.408-5.47-.339-4.754.091-1.8c2.184-40.766,13.156-81.827,31.821-121.857l.694-1.481.563-1.076c14.839-28.546,20.593-52.244,19.5-77.13l-.057-1.21c-.979-19.307-5.085-36.6-16.578-73.58l-.728-2.337-1.164-3.718-.06-.2a199.128,199.128,0,0,1-7.366-38.351l-.091-1.214-.415,1.464C150.04,445.124,139.011,520.846,139.1,594.679l.006,2.237.019,2.981.075,4c.445,21.539,1.572,42.467,3.811,74l.168,2.356L144,691.523l-.245,3.45-.1,1.442-.092,1.456-.081,1.412c-.626,11.608-.03,19.324,2.492,26.431l.552,1.512.121,2.585c.159,3.141.367,6.119.714,10.267l.108,1.281,1.118,12.593.214,2.522a213.318,213.318,0,0,1,.917,27.22l-.025.59-.075,1.509-.236,1.68c-2.74,18.8-9.061,31.824-22.126,44.043l-.385.357-.657.666A153.039,153.039,0,0,1,82.508,863.7l-1,.461-.982.444-7.5,3.356-2.658-7.776C30.1,742.358,7.128,643.871,1.376,549.567-5.394,438.58,12.635,336.981,59.611,241.705l1.432-2.885,1.518-3.161C113.991,129.608,195.991,50.6,294.509,22.754l2.99-.828,3.062-.813,24.261-6.3L308.008,33.4c-9.719,10.744-5.665,28.607,7.857,48.666l.413.609.716,1.039c23.811,35.3,62.618,59.913,111.111,72.739,43.378,11.474,92.459,12.759,136.558,4.364l1.335-.257,1.474-.261c42.536-7.728,73.741-34.352,77.617-70.991L645.2,88.2l.179-2.209c1.926-26.6-13.029-53.7-36.834-67.7l-.724-.42Z" transform="translate(279.498 48.638)" fill="#78e185"></path><path id="_Ink" data-name="ðŸ– Ink" d="M264.3,2197.958a242.459,242.459,0,0,1-34.157-2.425,237.725,237.725,0,0,1-33.49-7.272,226.22,226.22,0,0,1-32-12.107,211.542,211.542,0,0,1-29.676-16.935,30.829,30.829,0,0,1-7.669-7.244,21.2,21.2,0,0,1-3.791-9.765l-.109-.962c-.413-3.754-.652-7.025-.731-10a65.861,65.861,0,0,1,.445-10.18,40.1,40.1,0,0,1,2.387-9.637,27.858,27.858,0,0,1,5.1-8.37c3.869-33.092,8.986-66.008,15.208-97.834,6.421-32.844,14.16-65.243,23-96.3-.132-1.678-.243-3.438-.34-5.38-8.682-9.047-13.776-22.32-15.14-39.45a6.156,6.156,0,0,1,3.482-5.927,21.99,21.99,0,0,1,7.086-2l1.722-.016c.86-.006,1.717-.01,2.547-.01,13.273,0,28.64.753,41.982,6.338l-.669.027a3.757,3.757,0,0,0-1.927.473c2.667.855,5.467,1.533,8.174,2.19A75.007,75.007,0,0,1,228.307,1869a31.413,31.413,0,0,1,7.176,1.476l.009,0a34.7,34.7,0,0,0,6.72,1.463l.776.049c.1.009.2.013.3.013a2.449,2.449,0,0,0,1.7-.625c5.258.938,10.582,2.022,15.73,3.071l.008,0c7.7,1.568,15.663,3.19,23.51,4.344a3.462,3.462,0,0,0,.505.038,3.36,3.36,0,0,0,3.255-3.171,2.36,2.36,0,0,0-2.165-2.651c-8-1.177-16.118-2.83-23.971-4.429-9.359-1.906-19.036-3.876-28.622-5.067-2.039-.792-4.077-1.716-6.047-2.61l-.008,0-.011,0c-1.8-.815-3.653-1.658-5.513-2.4a2.61,2.61,0,0,0-1.351-1.31,99.482,99.482,0,0,0-13.3-5.057c-10.135-3.146-21.611-5.011-36.115-5.87l.862-8.706c1.082-11.005,2.161-22.227,3.2-33.079l.021-.215c3.116-32.428,6.338-65.96,10.159-98.923,4.289-37.006,8.879-69.2,14.031-98.428a989.482,989.482,0,0,1,21.7-96.652c4.562-16.229,9.578-32.13,14.911-47.26,5.6-15.89,11.74-31.48,18.251-46.337-5.183-11.984-11.25-23.93-17.118-35.483-8.127-16-16.53-32.544-22.792-49.569-3.084-8.074-5.376-16.41-7.592-24.472l-.011-.039c-1-3.653-2.044-7.43-3.146-11.15a78.212,78.212,0,0,1-5.14-17.689c-6.02-27.571-11.479-57.927-16.687-92.8-4.643-31.09-8.661-62.8-12.547-93.469v-.005q-.7-5.548-1.407-11.095c-5.5-4.549-9.121-10.921-12.649-17.6l-.016.941c-.091,4.835-.45,10.351-2.417,14.6a11.951,11.951,0,0,1-4.179,5.08,13.144,13.144,0,0,1-7.38,1.966c-.158,0-.319,0-.478-.006a16.784,16.784,0,0,1-6.728-1.486,15.143,15.143,0,0,1-4.884-3.667c-2.416-2.7-4.243-6.418-5.588-11.377a19.97,19.97,0,0,1-6.074,10.429,14.741,14.741,0,0,1-4.405,2.632,13.573,13.573,0,0,1-4.808.883,14.068,14.068,0,0,1-8.788-3.149,20.131,20.131,0,0,1-6.334-9.546c-1.964-5.32-2.4-11.233-2.815-16.951-.138-1.884-.28-3.832-.476-5.7-1.2-11.738-2.8-23.672-4.355-35.214l-.006-.046,0-.016c-1.925-14.327-3.915-29.142-5.161-43.741a300.744,300.744,0,0,1-.885-43.9,9.328,9.328,0,0,1-3.6-2.219,10.206,10.206,0,0,1-2.461-4.071c-6.989-21.194-12.992-39.948-18.352-57.336-6.394-20.738-11.955-39.77-17-58.182-11.733-42.82-20.43-81.515-26.59-118.3C7.741,664.5,5.077,644.375,3.243,625.1,1.3,604.667.219,584.462.03,565.045c-.2-20.425.585-40.661,2.327-60.144a549.487,549.487,0,0,1,8.7-60.083c4.142-20.005,9.126-39.981,14.814-59.372,5.962-20.326,12.785-40.3,20.279-59.373,16.216-41.269,35.736-78.859,58.018-111.727A438.523,438.523,0,0,1,142.447,165.5c6.968-7.662,14.225-15.03,21.569-21.9,7.52-7.034,15.338-13.738,23.236-19.925,8.082-6.332,16.472-12.3,24.935-17.731,8.656-5.557,17.629-10.711,26.668-15.318a299.337,299.337,0,0,1,58.669-22.519,403.128,403.128,0,0,1,50.814-9.162c17.716-2.14,35.2-3.393,51.446-4.428a82.475,82.475,0,0,0,6.041-15.273,76.175,76.175,0,0,0,2.8-16.227c.143-2.252.106-4.527.071-6.727-.013-.834-.028-1.779-.031-2.694a24.164,24.164,0,0,1,.4-3.727,15.5,15.5,0,0,0,.25-5.372.507.507,0,0,1,.09-.444.522.522,0,0,1,.4-.186.534.534,0,0,1,.505.359A8.949,8.949,0,0,0,412.188,7a13.032,13.032,0,0,1,1.355,1.713c2.461,4.459,3.142,9.681,3.8,14.732l.04.308a78.19,78.19,0,0,1-15.174,56.222l-.417.548a48.006,48.006,0,0,1-6.019,6.932c-2.846,2.577-5.572,3.885-8.1,3.885a7.8,7.8,0,0,1-4-1.138,6.238,6.238,0,0,1-3.257-4.551,10.238,10.238,0,0,1,1.206-5.867,21.9,21.9,0,0,1,3.563-5.156l.288-.305a84.578,84.578,0,0,0,12.979-17.34c-9.862,2.631-19.808,5.468-29.426,8.212l-.156.044c-5.581,1.592-11.352,3.238-17.037,4.823l-.738.406c-1.434.782-2.923,1.556-4.5,2.375-5.732,2.981-12.227,6.359-16.989,10.743-5.463,5.029-7.814,10.619-7.186,17.089a123.231,123.231,0,0,0,12.325,26.315,131.607,131.607,0,0,0,17.629,22.383c12.8,13.1,28.811,24.371,47.6,33.493a248,248,0,0,0,58.093,19.331,299.778,299.778,0,0,0,30.748,4.681c10.171,1.016,20.5,1.531,30.692,1.531a291.236,291.236,0,0,0,34.94-2.067,239.762,239.762,0,0,0,32.147-6.059L588,199.9a119.14,119.14,0,0,0,24.745-9.562,78.358,78.358,0,0,0,11.106-7.162A63.372,63.372,0,0,0,633.434,174l.477-.574a57.686,57.686,0,0,0,6.92-10.3,61.361,61.361,0,0,0,4.611-11.446,63.8,63.8,0,0,0,2.185-24.381,60.831,60.831,0,0,0-2.135-10.823,56.822,56.822,0,0,0-4.106-10.2,51.834,51.834,0,0,0-14.2-17.1A83.076,83.076,0,0,0,614.8,80.861,117.471,117.471,0,0,0,600.977,74.4a200.127,200.127,0,0,0-29.034-8.654c2.182,3.626,5.468,6.892,8.647,10.05l0,0a76.318,76.318,0,0,1,7.011,7.623,21.891,21.891,0,0,1,4.3,8.861,6.8,6.8,0,0,1-1.341,5.433,5.522,5.522,0,0,1-4.26,1.927c-.091,0-.185,0-.276,0-9.893,0-17.289-10.152-22.689-17.566q-.333-.457-.654-.9a100.089,100.089,0,0,1-13.424-25.628,108.265,108.265,0,0,1-5.887-28.352c-.661-9.012.878-17.247,3.391-26.84A.455.455,0,0,1,547.218,0a.555.555,0,0,1,.554.51,126.971,126.971,0,0,0,7.711,34.609,5.723,5.723,0,0,1,3.96,2.711c1.183,1.85,6.142,3.227,9.763,4.232l.087.024c.628.175,1.222.34,1.741.493l.5.151c14.31,4.424,29.3,6.258,44.689,7.893,17.846.988,32.747,3.15,45.555,6.61A119.986,119.986,0,0,1,696,72.161,124.158,124.158,0,0,1,710.6,83.2a169.668,169.668,0,0,1,13.845,13.67c8.284,9.1,16.984,20.187,28.208,35.957,7.9,10.542,15.412,21.625,22.95,33.882,6.715,10.918,13.3,22.523,20.13,35.48,12.687,24.063,24.309,49.247,35.55,73.6l.006.014,0,.005c9.9,21.448,20.133,43.625,31.053,64.946a572.128,572.128,0,0,0,28.71,49.53l.994,1.52a220.416,220.416,0,0,0,15.085,20.806A91.176,91.176,0,0,0,925.9,429.959c16.031-13.455,32.851-26.449,49.117-39.015l.008-.006c18.681-14.432,38-29.356,56.209-45.046l3.186-2.763c12.647-10.944,25.255-22.432,37.474-34.145,12.073-11.572,24.093-23.676,35.726-35.975a10.143,10.143,0,0,1,7.31-2.854,10.772,10.772,0,0,1,4.37.895c1.373-20.436,6.856-40.7,12.159-60.291.487-1.8.893-3.3,1.313-4.859a115.944,115.944,0,0,1,4.674-16.338,49.943,49.943,0,0,1,6.9-12.886c5.956-7.73,13.958-11.488,24.462-11.488a58.149,58.149,0,0,1,12.121,1.411,298.78,298.78,0,0,1,22.9-46.679,204.946,204.946,0,0,1,14.918-21.237,168.135,168.135,0,0,1,17.789-18.945l1.657-1.494q.52-.472,1.06-.968l.064-.059c5.119-4.691,11.489-10.528,18.325-10.528.33,0,.661.014.983.041a10.741,10.741,0,0,1,7.969,4.49,16.342,16.342,0,0,1,2.921,8.9c.266,6.374-1.975,12.779-4.143,18.973-.4,1.152-.859,2.453-1.265,3.673l-.2.615c-2.952,9.039-6.286,18.479-9.91,28.059-3.238,8.556-6.767,17.234-10.79,26.53-1.118,2.121-2.139,4.617-3.221,7.259a84.671,84.671,0,0,1-4.372,9.551,19.246,19.246,0,0,1-6.146,7.081,4.752,4.752,0,0,1-6.045-.8,6.141,6.141,0,0,1-1.715-3.664c-.459-4.067,1.426-7.738,3.249-11.287.337-.654.716-1.393,1.061-2.1,1.946-4,3.82-7.952,5.57-11.759a512.312,512.312,0,0,0,19.41-48.57c.4-1.344,1.1-3.193,1.909-5.333l.005-.013c2.531-6.7,6-15.877,4.206-19.663-1.934.016-5.568,3.384-7.739,5.4-.491.456-.914.848-1.232,1.122a163.309,163.309,0,0,0-14.827,14c-4.372,4.649-8.692,9.7-13.206,15.452-8.379,10.67-16.146,22.147-23.658,33.246l-.006.009-.065.1c-4.27,6.307-8.684,12.829-13.147,19.1,2.833.81,5.766,1.536,8.6,2.238l.008,0a142.975,142.975,0,0,1,14.842,4.244,46.415,46.415,0,0,1,13.447,7.336,28.729,28.729,0,0,1,5.958,7.161,27.205,27.205,0,0,1,3.109,8.057,28.658,28.658,0,0,1,.51,8.378,30.621,30.621,0,0,1-5.726,15.353,28.389,28.389,0,0,1-5.7,5.857,25.955,25.955,0,0,1-15.876,5.357,30,30,0,0,1-6.992-.853,105.146,105.146,0,0,1,5.539,14.532,83.026,83.026,0,0,1,3.225,16.361,49.74,49.74,0,0,1-.98,16.05,30.378,30.378,0,0,1-7.074,13.6,8.953,8.953,0,0,1-6.087,2.307,8.742,8.742,0,0,1-4.99-1.5,7.107,7.107,0,0,1-2.912-4.491c-1.276-6.234.028-11.747,1.409-17.584.14-.592.277-1.171.41-1.746A163.821,163.821,0,0,0,1187,247.311a95.184,95.184,0,0,0-.469-20.621l-.6-.357a18.364,18.364,0,0,1-5.824-5.057,12.132,12.132,0,0,1-2.028-7.445,7.828,7.828,0,0,1,1.909-5.928,5.3,5.3,0,0,1,3.936-2.019,4.966,4.966,0,0,1,3.034,1.126,9.283,9.283,0,0,0,2.526,1.234,9.9,9.9,0,0,1,2.545,1.226c3.255,3.1,6.629,4.671,10.028,4.671h.09l.381-.01a10.586,10.586,0,0,0,6.463-2.144,11.6,11.6,0,0,0,3.838-5.654,11.341,11.341,0,0,0-.482-9.236c-1.478-2.706-4.23-4.96-8.415-6.891a67.165,67.165,0,0,0-10.994-3.663l-2.454-.758c-9.057-2.771-15.769-4.489-21.235-4.489a17.053,17.053,0,0,0-7.15,1.374,14.641,14.641,0,0,0-5.573,4.535c-3.2,4.121-5.706,10.8-7.888,21.016-.949,3.059-1.9,6.186-2.818,9.209l-.068.223c-2.952,9.717-6,19.766-9.551,29.447a181.766,181.766,0,0,1-12.773,28.1l1.484,3.55c6.079,14.492,12.789,29.718,22.06,42.586,10.6,14.714,22.788,23.779,37.255,27.713a9.461,9.461,0,0,1,5.9-8.034c2.567-1.141,5.884-1.672,10.439-1.672.79,0,1.618.015,2.6.046,9.3-.5,19.076-5.161,26.14-12.461a56.382,56.382,0,0,0,6.8-8.991c2.5-3.816,5.091-7.762,8.73-10.719a8.292,8.292,0,0,1,.628-7.929,7.488,7.488,0,0,1,6.229-3.5,8.044,8.044,0,0,1,3.923,1.073,40.743,40.743,0,0,1,4.242,2.807c2.7,1.956,5.243,3.8,9.078,4.313a16.228,16.228,0,0,0,2.149.144,18.886,18.886,0,0,0,15.355-9.081,18.688,18.688,0,0,0,2.031-5.121,49.659,49.659,0,0,0,.922-11.2,53.985,53.985,0,0,1,.862-11.2c-3.714,6.432-9.87,10.555-14.379,12.88-7.323,4.192-13.726,6.318-19.032,6.318-3.817,0-6.987-1.144-9.167-3.308a10.493,10.493,0,0,1-3.033-7.279,10.82,10.82,0,0,1,2.948-7.793,9.421,9.421,0,0,1,6.909-2.794,14.458,14.458,0,0,1,4.555.8c10.47-2.384,16.132-5.42,18.358-9.843,1.288-2.559,1.487-5.632.627-9.671-.734-3.449-2.2-7.548-4.915-13.707l-.154-.461c-.154-.451-.331-.946-.5-1.425-1.484-4.162-3.724-10.445-1.124-14.4a.479.479,0,0,1,.378-.209.4.4,0,0,1,.282.119,19.674,19.674,0,0,1,3.493,5.639,27.768,27.768,0,0,0,2.416,4.379l2.658,3.177c4.081,4.921,8.193,10.256,10.629,15.924,2.8,6.5,3.007,12.513.644,18.37a1.318,1.318,0,0,1,.277-.03,1.091,1.091,0,0,1,1.083.83c.714,2.6,1.643,5.22,2.541,7.754,2.25,6.353,4.576,12.918,3.849,19.806a29.139,29.139,0,0,1-10.3,19.587,31.043,31.043,0,0,1-9.441,5.441,31.79,31.79,0,0,1-24.305-1.058c-1.684,12.548-8.447,24.171-19.041,32.726a58.586,58.586,0,0,1-16.843,9.5,55.77,55.77,0,0,1-19.084,3.419c-.788,0-1.586-.018-2.373-.054a10.13,10.13,0,0,1-2.657,4.947,8.216,8.216,0,0,1-5.223,2.4c-9.856,15.8-26.566,37.314-47.049,60.571a927.491,927.491,0,0,1-71.566,72.691c-13.514,12.257-26.838,23.516-39.6,33.463a441.015,441.015,0,0,1-39.281,27.581c-27.618,17.006-50.833,25.63-69,25.63-1.621,0-3.222-.07-4.76-.207a25.364,25.364,0,0,1-10.609,1.962,87.653,87.653,0,0,1-11.618-1.038l-.017,0c-.707-.095-1.374-.185-2.045-.272a153.34,153.34,0,0,1-42.4-12.043,178.64,178.64,0,0,1-37.608-22.811,216.6,216.6,0,0,1-56.3-67.586c-.777,12.886-1.176,25.2-1.184,36.6-.007,10.961.348,21.463,1.056,31.213a280.031,280.031,0,0,0,7.831,49.888,244.172,244.172,0,0,0,13.789,39.185c5.363,12.071,11.371,23.536,17.732,35.673l.013.025c7.644,14.586,15.549,29.667,23.459,47.844a482.7,482.7,0,0,1,22.862,65.206,9.684,9.684,0,0,1,4.3,6.023,7.81,7.81,0,0,1-1.2,6.1c.434,2.224,1,4.5,1.544,6.71,1.539,6.218,3.131,12.648,2.175,19.021a28.746,28.746,0,0,1-2.6,6.027c-.137.261-.318.6-.5.952a6.118,6.118,0,0,1-5.618,3.31,8.115,8.115,0,0,1-6.112-2.84c4.524,16.379,3.249,33.611,2.017,50.275l-.025.335c-.131,1.78-.267,3.62-.392,5.421-.73,10.09-.734,20.274-.739,30.122q0,1.262,0,2.527c-.122,13.552-.789,27.506-1.983,41.474-1.139,13.311-2.792,27.062-4.915,40.871a783.045,783.045,0,0,1-16.95,80.273c-6.238,23.765-13.973,49.568-23.647,78.883-8.639,26.177-17.968,52.61-26.991,78.173l-.03.086c-8.908,25.241-18.119,51.341-26.638,77.113-9.566,28.941-17.229,54.4-23.425,77.828-6.344,23.771-11.359,45.7-15.329,67.037-2.139,11.5-3.981,22.917-5.474,33.94-1.565,11.552-2.8,23.056-3.667,34.193-1.787,22.949-2.15,46.343-2.5,68.966v.027c-.393,25.338-.8,51.539-3.209,77.225-1.272,13.555-3.183,27.664-5.679,41.934-2.322,13.27-5.239,27.191-8.672,41.377-5.959,24.624-13.484,50.434-23.681,81.223.244,1,.556,2.051.857,3.069l0,.011c1.027,3.467,2.088,7.052,1.043,9.924-21.831,3.682-43.363,10.069-64.186,16.246l-.008,0c-3.323.986-6.759,2.005-10.145,3a2.766,2.766,0,0,0-1.868,1.588l-5.62,1.867a2.936,2.936,0,0,0-1.724,1.42,3.264,3.264,0,0,0-.3,2.026,2.794,2.794,0,0,0,2.637,2.51,3.116,3.116,0,0,0,.985-.169l6.144-2.042c20.335-6.734,42.037-13.573,64.121-16.726l.671-.274a16.99,16.99,0,0,1,6.433-1.573,6.1,6.1,0,0,1,3.074.741,5.793,5.793,0,0,1,2.3,2.617c1.029,2.15.522,4.577-1.426,6.834a18.5,18.5,0,0,1-1.906,1.831,13.548,13.548,0,0,0-2.531,2.656c-.73,1.289-1.408,2.627-2.063,3.921-.591,1.167-1.2,2.374-1.853,3.547a112.365,112.365,0,0,1-1.406,15.354c-.957,6.929-1.946,14.094-1.042,21.168a30.17,30.17,0,0,0,1.6,4.551l0,.012a26.166,26.166,0,0,1,1.753,5.276,8.767,8.767,0,0,1-.686,5.492l1.184.756c6.628,4.261,13.4,9.166,18.015,16.143a15.7,15.7,0,0,1,1.176,2.488,10.04,10.04,0,0,0,1.694,3.162,7.211,7.211,0,0,0,3.274,1.329,14.666,14.666,0,0,1,1.555.422,15.687,15.687,0,0,1,11.33,16.571c9.012,2.594,11.657,8.591,14.721,15.536,2.743,6.218,5.852,13.264,14.3,19.053a63.7,63.7,0,0,0,12.234,6.89,92.664,92.664,0,0,0,13.407,4.544c9.21,2.417,18.864,3.781,28.2,5.1,3.488.493,7.094,1,10.569,1.556l36.671,5.851,2.132.259c12.335,1.523,25.238,3.619,36.029,8.6a50.193,50.193,0,0,1,7.791,4.43,37.347,37.347,0,0,1,6.539,5.793,32.222,32.222,0,0,1,4.9,7.38,34.9,34.9,0,0,1,2.887,9.193l.375.437a33.913,33.913,0,0,1,6.74,13.134c.943,3.922,1.246,9.459-2.661,13.564-4.46,3.96-10.224,6.262-15.8,8.488-1.432.572-2.913,1.163-4.335,1.77a58.708,58.708,0,0,1-16.378,7.811,140.722,140.722,0,0,1-17.067,4.133c-25.144,4.659-50.853,8.208-76.413,10.55-25.509,2.336-51.434,3.521-77.056,3.521-19.8,0-39.84-.708-59.556-2.1-19.764-1.4-39.7-3.524-59.255-6.317l-1.509-.221c-5.868-.879-12.664-2.151-18.581-4.929a20.98,20.98,0,0,1-8.954,8.421,25.987,25.987,0,0,1-11.361,2.34,58.217,58.217,0,0,1-16.3-2.75c-10.288-2.548-20.691-5.085-30.75-7.539l-.962-.252c-2.562-.658-5.238-1.23-8.072-1.834h-.005c-7.356-1.571-14.963-3.2-21.257-6.48a25.926,25.926,0,0,1-8.15-6.349,22.085,22.085,0,0,1-4.635-9.964c-1.96-9.852-1.85-21-1.753-30.832l0-.3-.022-3.318c-.007-4.328.169-9.311,1.527-13.451a14.008,14.008,0,0,1,3.089-5.435,10.341,10.341,0,0,1,5.676-2.976,72.336,72.336,0,0,1-7.089-19.5,82.278,82.278,0,0,1-1.608-20.547,98.755,98.755,0,0,1,10.7-39.885l.661-1.208c4.07-7.468,8.16-15.575,10.513-24.246a60.864,60.864,0,0,0,2.069-12.578,66.077,66.077,0,0,0-.722-13.958,32.3,32.3,0,0,1-7.053-10.191,79.406,79.406,0,0,1-4.167-11.969c-4.756-17.144-8.929-34.579-12.4-51.823l5.446-11.192c17.05-35.064,32.106-66.82,43.692-100.375a2.516,2.516,0,0,0-.34-2.365,3.543,3.543,0,0,0-2.81-1.432,2.445,2.445,0,0,0-2.332,1.484c-6.53,14.18-13.809,28.287-20.849,41.929l-.02.038-.006.011c-9.217,17.861-18.748,36.33-26.707,55.176a300.938,300.938,0,0,1-33.029,48.967l-.554.775c-4.876,6.689-8.986,8.912-16.935,11.647a5.51,5.51,0,0,1-2.15.439,5.973,5.973,0,0,1-1.649-.239c-2.151,2.916-4.455,5.692-6.683,8.375-2.934,3.534-5.705,6.871-8.179,10.526a46.766,46.766,0,0,0-6.029,11.989,133.251,133.251,0,0,0-4.766,21.248c-.952,6.437-1.63,13.337-2.134,21.713a82.21,82.21,0,0,0,2.333,20.432c1.535,6.708,3.667,13.425,5.728,19.922l0,.007c1.4,4.417,2.851,8.985,4.088,13.478,7.484,23.951,15.858,47.684,24.887,70.54a44.676,44.676,0,0,1,13.433,8.784c.295-.029.594-.043.888-.043a7.915,7.915,0,0,1,4.438,1.288,7.448,7.448,0,0,1,2.964,4.141l.53,1.74c4.511,14.976,8.333,32.305,2.48,47.291a55.283,55.283,0,0,1-7.653,12.4,65.107,65.107,0,0,1-10.4,10.106,86.538,86.538,0,0,1-12.537,8.075,120.042,120.042,0,0,1-14.06,6.31,191.894,191.894,0,0,1-30.236,8.386c-11.032,2.208-21.819,3.627-28.973,4.5C279.463,2197.6,271.853,2197.958,264.3,2197.958Zm-129.49-79.279c.028.861.054,1.716.078,2.518.222,7.435.431,14.455,2.8,21.412,1.1,2.267,3.135,3.706,5.129,4.985l1.231.785c5.356,3.417,11.034,6.681,16.879,9.7a235.158,235.158,0,0,0,105.258,25.137,211.3,211.3,0,0,0,47.747-5.355,184.541,184.541,0,0,0,44.814-16.635,48.692,48.692,0,0,0,11.078-8.345,34.679,34.679,0,0,0,7.024-10.3c3.34-7.656,3.561-16.329.659-25.776.174,3.884-1,7.537-3.133,9.772a8.167,8.167,0,0,1-6.14,2.536c-.129,0-.266,0-.407-.008-4.339,5.628-10.453,9.578-16.344,13.142l-3.6,2.158A167.708,167.708,0,0,1,306.4,2160.3a190.175,190.175,0,0,1-44.341,5.154,203.115,203.115,0,0,1-70.4-12.624,209.779,209.779,0,0,1-19.781-8.661,175.055,175.055,0,0,1-18.67-10.85c-1.1-.74-2.2-1.455-3.357-2.212C144.312,2127.5,138.58,2123.762,134.813,2118.679Zm387.346-9.207h0a7.021,7.021,0,0,1,4.884,1.858c7.233,6.885,17.193,8.071,26.825,9.217h.012c1.187.141,2.414.287,3.6.441l3.346.426c12.15,1.519,24.573,2.792,36.924,3.785,22.281,1.78,44.907,2.682,67.249,2.682h.009c24.582,0,49.427-1.093,73.845-3.247,24.519-2.164,49.173-5.449,73.276-9.765l.84-.151a129.657,129.657,0,0,0,16.048-3.679,52.983,52.983,0,0,0,8.365-3.361,25.536,25.536,0,0,0,6.7-4.788,24.563,24.563,0,0,0,6.7-3.46c.481-.313.948-.618,1.4-.9a3.408,3.408,0,0,0,1.121-1.276l.283-.158.057-.031c1.449-.806,3.252-1.809,2.891-3.5,1.944-1.783,2.814-3.968,2.387-5.994-.435-2.07-2.154-3.713-4.839-4.625-4.3,1.18-7.657,2.071-11.712,2.8-1.452.7-2.855,1.437-4.171,2.183l-1.616-.112c-.854,1.741-2.591,2.707-4.27,3.641l-.009.005a17.585,17.585,0,0,0-2.651,1.688c-11.869,2.637-24.836,5.038-39.644,7.343-13.659,2.125-27.25,3.922-40,5.581l-8.266,1.073-5.158.552c-34,3.636-69.149,7.4-103.8,7.4a370.223,370.223,0,0,1-61.1-4.659,289.015,289.015,0,0,1-36.64-9.021,346.039,346.039,0,0,1-35.191-13.322c-21.126-9.3-42.789-21.08-66.229-36.016a1.264,1.264,0,0,1-1.221,1.176,1.158,1.158,0,0,1-.319-.046,3.682,3.682,0,0,0-1.013-.159,1.936,1.936,0,0,0-1.584.734c-1.788,2.221-.312,8.966.318,11.846l.015.071c.1.466.182.835.223,1.069l.319,1.9c.849,5.218,1.467,10.417,2.008,15.26l.423,3.831c.065,7.288.366,10.921,1.972,13.179a7.509,7.509,0,0,0,3.691,2.6,43.12,43.12,0,0,0,6.709,1.7l3.208.623c7.762,2,15.611,4.227,23.2,6.381l.018.005c5.188,1.472,10.554,2.994,15.859,4.435l.136.037c.48.134,1.168.345,1.964.589,4.432,1.359,12.677,3.886,18.673,3.886,2.84,0,4.826-.586,5.9-1.74a4.044,4.044,0,0,0,.964-3.173l-.013-.238a5.848,5.848,0,0,1,1.643-4.378A7.645,7.645,0,0,1,522.159,2109.472Zm22.135-1047.89c-4.378,2.752-8.846,5.428-13.281,7.953.931,15.053,1.274,30.409,1.047,46.946-.2,14.741-.854,30.087-1.993,46.913-2.115,31.251-5.635,62.969-9.039,93.642l0,.029v.012c-2.649,23.872-5.389,48.557-7.437,72.78a2.6,2.6,0,0,0,.629,2.023,2.9,2.9,0,0,0,2.141.857,3.1,3.1,0,0,0,3.23-2.88c.158-2.039.336-4.114.508-6.12l.023-.274q.1-1.167.2-2.334c7.555-35.446,12.077-73.156,16.451-109.625,2.039-17.011,4.148-34.6,6.534-51.654,3.009-14.617,3.749-29.816,4.465-44.514v-.034c.308-6.333.627-12.882,1.124-19.288.093-1.527.2-3.027.307-4.477v-.007a84.6,84.6,0,0,0,.217-15.186,33.817,33.817,0,0,0-5.125-14.764Zm-421.8-53.839h0a5.093,5.093,0,0,1,5.329,4.726l4.8,34.27a63.454,63.454,0,0,1,.877,6.4v.009a104.3,104.3,0,0,0,1.915,12.66c1.118,4.543,2.58,6.82,4.469,6.961l.176.02c.061,0,.118.007.17.007a1.5,1.5,0,0,0,1.146-.483c1.091-1.177.857-4.267.687-6.523l0-.051c-.046-.615-.086-1.146-.094-1.577v-.263l.311-17.67c.063-3.648.124-7.289.191-11.329.125-7.524.254-15.305.409-23.031a6.267,6.267,0,0,1,1.925-4.65,6.109,6.109,0,0,1,4.141-1.528,6.876,6.876,0,0,1,4.388,1.562,6.728,6.728,0,0,1,2.365,4.615,252.39,252.39,0,0,0,3.464,25.017c1.941,9.39,4.662,17.124,8.316,23.644a5.982,5.982,0,0,1,3.352-.964,7.271,7.271,0,0,1,1.9.254,90.437,90.437,0,0,1,2.151-14.8,82.583,82.583,0,0,1,4.689-14.158c-.949-7.9-.429-16.143.074-24.113.146-2.3.283-4.479.386-6.666l.366-7.3c.4-7.639.856-15.565,1.26-22.558l.017-.3c.258-4.476.525-9.1.778-13.653a68.188,68.188,0,0,1,1.184-14.651c1-4.575,2.673-7.994,5.12-10.451,3.238-3.251,7.827-4.832,14.029-4.832a44.49,44.49,0,0,1,5.314.343c2.363.168,4.487.25,6.5.25a55.13,55.13,0,0,0,9.976-.829,14.57,14.57,0,0,0,3.6-1.309l.012-.006a19.98,19.98,0,0,1,2.225-.935c-8.528-7.605-17.343-14.921-25.868-21.995-4.62-3.834-9.4-7.8-14.1-11.786-1.389-1.159-2.8-2.31-4.167-3.424l-.006,0c-3.4-2.774-6.919-5.642-10.157-8.68a52.5,52.5,0,0,1-3.815-4.122l0,0a46.829,46.829,0,0,0-4.351-4.614,81.731,81.731,0,0,1-13.92,18.378,102.987,102.987,0,0,1-18.339,14.449A132.877,132.877,0,0,1,92.363,919.08a8.527,8.527,0,0,1-3.1,4.313,11.012,11.012,0,0,1-5.053,2.056c2.564,20.328,5.9,40.9,9.131,60.791,3.937,24.261,8.007,49.342,10.708,74.188q.046.275.093.555l.019.113c.522,3.151,1.113,6.722,3.549,8.912,2.536-1.016,2.934-4.779,3.224-7.527l0-.04c.047-.442.091-.859.142-1.233,1.059-14.334,2.312-28.9,3.524-42.984v-.018l.344-4,.021-.217C115.411,1010.133,119.217,1007.744,122.493,1007.744ZM316.013,80.53a291.154,291.154,0,0,0-39.11,13.2,307.035,307.035,0,0,0-36.462,18.239A333.15,333.15,0,0,0,206.7,134.66a367.108,367.108,0,0,0-30.95,26.552,423.577,423.577,0,0,0-53.234,62.349,490.137,490.137,0,0,0-41.2,70.769c-6.2,12.4-11.99,25.121-17.216,37.811-5.133,12.466-9.868,25.259-14.071,38.023-4.124,12.525-7.856,25.381-11.091,38.209-3.17,12.572-5.954,25.481-8.274,38.367-2.272,12.614-4.164,25.568-5.624,38.5-1.427,12.642-2.483,25.631-3.138,38.605-.639,12.667-.914,25.682-.816,38.685.095,12.675.546,25.708,1.341,38.738.773,12.673,1.894,25.715,3.333,38.765,1.4,12.665,3.132,25.708,5.16,38.764,3.854,24.816,8.949,50.866,15.143,77.425C57,803.091,71.706,853.363,91.033,909.91A136.671,136.671,0,0,0,114.6,896.346a157.977,157.977,0,0,0,20.644-17.728,68.914,68.914,0,0,0,8.332-9.074,55.286,55.286,0,0,0,5.885-9.626c3.033-6.333,5.02-13.543,6.253-22.69.636-12.118-.468-24.329-1.536-36.139-.6-6.613-1.216-13.451-1.524-20.211a57.232,57.232,0,0,1-3.218-16.922,141.744,141.744,0,0,1,.4-17.33l.207-2.938c-2.264-30.8-4.339-60.967-4.851-91.51a773.509,773.509,0,0,1,3.334-77.712c2.366-25.44,6.026-51.4,10.878-77.149,4.743-25.167,10.731-50.7,17.8-75.9,6.92-24.674,15.026-49.561,24.091-73.969a.852.852,0,0,1,.791-.6.843.843,0,0,1,.636.292.934.934,0,0,1,.2.757c-1.056,7.572-2.3,15.514-3.811,24.28.4-.617.793-1.22,1.22-1.83a.331.331,0,0,1,.274-.155.34.34,0,0,1,.284.158.33.33,0,0,1,.011.328c-.916,1.929-1.76,3.9-2.579,6.04-1.659,9.393-3.566,19.467-6,31.7a138.3,138.3,0,0,0,1.862,25.187,216.926,216.926,0,0,0,5.625,24.811c5.035,16.036,9.472,30.4,12.775,43.851,3.641,14.82,5.576,27.185,6.089,38.913a134.9,134.9,0,0,1-3.837,38.691c-3.362,13.663-8.924,27.789-17,43.185a355.366,355.366,0,0,0-21.88,59.321,311.371,311.371,0,0,0-6.619,30.9,287.667,287.667,0,0,0-3.311,31.5c.777,11.1,1.7,22.327,2.6,33.187.869,10.557,1.769,21.473,2.533,32.285a9.114,9.114,0,0,1,2.08,1.678c7.171,3.586,15.228,5.961,23.02,8.258,1.888.556,3.841,1.132,5.73,1.712,46.1,13.036,91.315,25.658,137.541,36.761,24.734,5.941,47.479,10.9,69.533,15.161,24.567,4.746,47.542,8.487,70.236,11.437a602.052,602.052,0,0,0,71.989,4.253c15.81,0,32.074-.6,48.34-1.781,15.759-1.145,31.954-2.869,48.135-5.124,15.652-2.181,31.721-4.918,47.763-8.137,15.486-3.107,31.374-6.747,47.224-10.82,9.37-2.346,20.428-5.269,31.4-9.161a152.813,152.813,0,0,0,29.57-13.818,70.853,70.853,0,0,0,14.243-11.335,39.589,39.589,0,0,0,5.321-7.063,29.771,29.771,0,0,0,3.276-8.123A443.058,443.058,0,0,0,785.434,701.4c-6.25-11.214-11.184-20.5-15.528-29.224-5.35-10.746-9.781-20.6-13.544-30.133-8.919-22.581-14.1-43.487-15.839-63.911-1-8.336-1.706-16.861-2.144-26.062-.389-8.2-.559-16.737-.519-26.112.074-17.4.883-35.107,1.664-52.227l0-.043,0-.032c.38-8.324.773-16.931,1.076-25.384l.07-1.939c1.264-35.634.718-67.116-1.671-96.244-1.353-16.5-3.34-32.561-5.907-47.74a464.259,464.259,0,0,0-10.411-46.977l-.256-.929a186.209,186.209,0,0,0-9.466-26.933,122.634,122.634,0,0,0-6.57-12.643,99.648,99.648,0,0,0-8.179-11.7.378.378,0,0,1-.057-.415.384.384,0,0,1,.334-.228.361.361,0,0,1,.253.112A107.741,107.741,0,0,1,716.5,226.316a208.86,208.86,0,0,1,12.556,26.936l.708,1.807c3.624,8.581,6.956,17.552,9.905,26.663,2.84,8.773,5.409,17.938,7.635,27.239,2.135,8.921,4.02,18.241,5.6,27.7,1.511,9.033,2.793,18.469,3.81,28.046,3.492,32.875,4.16,68.891,2.1,113.342,1.923,2.031,3.893,4.119,5.8,6.139l.366.388c19.9,21.1,40.474,42.917,63.919,59.588a184.017,184.017,0,0,0,18.133,11.422,146.13,146.13,0,0,0,19.351,8.875,126.574,126.574,0,0,0,20.747,5.749,122.563,122.563,0,0,0,22.321,2.045c.4,0,.815,0,1.247-.006,2.405-.509,4.861-.939,7.235-1.356l.027,0a94.426,94.426,0,0,0,16.219-3.847c25.691-10.327,51.525-25.026,78.978-44.935,25.014-18.141,48.644-38.615,70.453-58.038l2.759-2.46c11.677-10.833,23.247-22.132,34.437-33.058l.016-.016c20.547-20.062,41.793-40.807,64.367-59.336a66.668,66.668,0,0,1-13.213-3.258A70.381,70.381,0,0,1,1160,360.305a89.359,89.359,0,0,1-20.4-16.894c-10.594-11.608-20.059-26.978-28.132-45.682-15.729,15.448-28.93,28-41.541,39.493-15.4,14.037-29.7,26.292-43.722,37.462-33.17,26.427-64.711,46.656-96.428,61.844a6.553,6.553,0,0,1-1.931,3.9,5.32,5.32,0,0,1-7.379.32c-3.514,1.533-6.219,2.677-8.769,3.709a.8.8,0,0,1-.3.062.991.991,0,0,1-.869-.691.9.9,0,0,1,.213-1.021l5.711-4.87c-27.578-22.331-44.744-54.531-61.344-85.67-1.758-3.3-3.575-6.706-5.368-10.033l-1.709-3.156c-8.784-17.748-17.332-36.2-25.6-54.04-8.061-17.4-16.4-35.39-25.023-52.9-9.676-19.634-18.655-36.463-27.449-51.449a468.283,468.283,0,0,0-32.147-48.226c-6-7.832-12.239-15.352-18.546-22.35-6.621-7.346-13.543-14.371-20.574-20.879a76.675,76.675,0,0,0-15.7-11.321,92.344,92.344,0,0,0-17.242-7.189c-11.3-3.5-23.132-5.271-37.422-6.859l-3.215-.351a82.092,82.092,0,0,1,17.949,13.95,84.934,84.934,0,0,1,13.553,18.25,81.02,81.02,0,0,1,8.112,21.17,73.928,73.928,0,0,1,1.626,22.709,77.426,77.426,0,0,1-8.811,30.885A83.029,83.029,0,0,1,638.275,194.3a106.624,106.624,0,0,1-26.565,16.587,130.274,130.274,0,0,1-30.709,9.2c-9.718,1.9-19.824,3.352-30.04,4.325-10.357.986-20.932,1.486-31.432,1.486-39.456,0-77.522-6.93-110.082-20.043a207.285,207.285,0,0,1-47.719-26.644,172.277,172.277,0,0,1-20.24-17.941,159.261,159.261,0,0,1-17.145-21.2l-.675-.979C313.934,124.82,300,98.236,316.013,80.53ZM186.272,438.618h0q-.835,4.317-1.674,8.633l-.005.025c-3.664,18.886-7.454,38.414-10.809,57.683-3.764,21.619-6.572,40.617-8.582,58.08-2.08,18.531-3.428,37.488-4.006,56.345-.571,18.606-.407,37.61.486,56.485a215.136,215.136,0,0,1,9.181-27.6c3.61-9,7.7-18.005,11.652-26.711,7.36-16.206,14.971-32.963,19.8-50.393a105.282,105.282,0,0,0,2.568-21,141,141,0,0,0-1.109-20.816c-1.692-13.832-5.076-27.821-8.349-41.35l0-.015c-3.9-16.126-7.933-32.8-9.146-49.371ZM1236.862,262.2a20.164,20.164,0,0,1-7.619-1.479c-5.483-.929-10.351-4.1-14.075-9.162a35.476,35.476,0,0,1-6.294-15.96.476.476,0,0,1,.087-.41.462.462,0,0,1,.36-.166.5.5,0,0,1,.354.149l.057.068c4.653,5.741,12.085,9.482,18.041,12.1a23.437,23.437,0,0,1,5.78-2.221,4.508,4.508,0,0,1,.992-.111,4.69,4.69,0,0,1,3.415,1.5,3.982,3.982,0,0,1,1.053,3.078,18.158,18.158,0,0,0,8.566-4.09,25.128,25.128,0,0,0,5.85-7.518,39.585,39.585,0,0,0,3.422-9.323,48.853,48.853,0,0,0,1.28-9.505l.01-.364a50.715,50.715,0,0,0-1.08-12.227,48.766,48.766,0,0,0-10.493-21.38,50.29,50.29,0,0,0-9.027-8.323.744.744,0,0,1-.246-.832.538.538,0,0,1,.5-.42.646.646,0,0,1,.245.053,42.739,42.739,0,0,1,10.156,6,48.091,48.091,0,0,1,8.251,8.425,55,55,0,0,1,9.943,21.529,51.367,51.367,0,0,1,.177,21.834,43.206,43.206,0,0,1-3.616,10.254,40.284,40.284,0,0,1-6.311,9.123,32.226,32.226,0,0,1-9.117,6.767A24.211,24.211,0,0,1,1236.862,262.2Z" transform="translate(261 -1.998)"></path></g><g transform="translate(225 0)"><g><g id="head_Medium_Bangs_3" data-name="head/Medium Bangs 3"><path id="_Skin" data-name="âœ‹ Skin" d="M229.6.587c56.781,0,127.9,64.771,148.71,92.333,17.5,23.173,15.024,142.554,15.024,213.371,0,14.811-6.7,42.842-9.126,57.01C375.3,415.216,336.5,458.755,259.7,458.755c-62.532,0-110.655-19.807-157.19-70.465-10.617-11.557-62.465,29.817-73.069,14.917-27.7,0-50.856-258.778,3.523-336.4S172.82.587,229.6.587Z" transform="translate(26.975 38.391)" fill="#d08b5b"></path><path id="_Ink" data-name="ðŸ– Ink" d="M134.9,539.708a11.525,11.525,0,0,1-6.328-1.894,8.35,8.35,0,0,1-3.711-5.219c-.49-2.315-1.036-4.633-1.62-6.89-1.088-4.228-2.342-8.433-3.727-12.5l-.533-1.54c-.562-1.605-1.113-3.239-1.646-4.818l-.006-.018c-.6-1.771-1.215-3.6-1.848-5.394l-.12-.389c-.049-.168-.1-.347-.15-.532l-2.03,4.431-6.17,13.37a5.686,5.686,0,0,1-2.189,2.541,5.6,5.6,0,0,1-2.917.785,7.688,7.688,0,0,1-4.852-1.836,6.585,6.585,0,0,1-2.445-4.654l-.008-.206c-.035-1.3-.079-2.351-.139-3.3a107.2,107.2,0,0,0-4.09-23.88l-.808,1c-7.268,8.986-13.628,15.474-20.013,20.419a66.185,66.185,0,0,1-11.923,7.44,53.093,53.093,0,0,1-13.6,4.4,6.353,6.353,0,0,1-1.105.1,7.376,7.376,0,0,1-6.319-3.7,5.159,5.159,0,0,1,.4-5.522c1.391-2.045,2.726-4.138,3.97-6.22-1.092-.511-2.125-1.043-3.07-1.58a61.2,61.2,0,0,1-18.53-16.68,65.257,65.257,0,0,1-6.818-11.228A78.867,78.867,0,0,1,7.95,463.965a115.381,115.381,0,0,1-4.084-25.91c-1.062-19.559.892-38.778,5.65-55.58a140.424,140.424,0,0,1,8.54-22.2c-.221-.588-.436-1.186-.644-1.764l0-.007-.053-.148a293.4,293.4,0,0,1-9.21-31.361,305.355,305.355,0,0,1-8.11-65.53A316.223,316.223,0,0,1,4.7,202.337,299.854,299.854,0,0,1,20.567,145.2,306.07,306.07,0,0,1,48.433,90.316,238.871,238.871,0,0,1,87.917,43.2a159.613,159.613,0,0,1,25.519-18.91,167.471,167.471,0,0,1,28.444-13.5,177.47,177.47,0,0,1,30.481-8.1A186.143,186.143,0,0,1,203.99,0c1.507,0,3.037.018,4.546.055A215.622,215.622,0,0,1,242.6,3.642,230.909,230.909,0,0,1,275.707,12.4a201.882,201.882,0,0,1,31.23,14.14,78,78,0,0,1,10.113,6.78l.8.62h.01c7.648,2.748,15.223,7.681,23.16,15.08,3.188-.255,6.39-.383,9.514-.383A104.715,104.715,0,0,1,382.4,53.455a106.983,106.983,0,0,1,26.566,12.651,91.58,91.58,0,0,1,21.654,19.829,80.46,80.46,0,0,1,14.55,29.653,101.893,101.893,0,0,1,2.657,33.078l-.311,3.85c-.82,9.876-1.951,21.311-5,32.045a67.248,67.248,0,0,1-6.085,14.95,41.543,41.543,0,0,1-9.993,11.944,12.768,12.768,0,0,1-4.06,2.219,246.487,246.487,0,0,1,14.261,28.485A215.652,215.652,0,0,1,446.856,272.3a286.577,286.577,0,0,1,5.85,29.271c1.4,9.57,2.368,19.486,2.869,29.472.482,9.6.548,19.547.2,29.563-.335,9.591-1.063,19.53-2.162,29.542-1.047,9.539-2.464,19.434-4.211,29.41-1.654,9.445-3.656,19.259-5.95,29.168-4.192,18.106-9.384,36.8-15.874,57.163A10.283,10.283,0,0,1,423.7,511a10.64,10.64,0,0,1-6.1,2.082,7.48,7.48,0,0,1-6.061-2.955,60.654,60.654,0,0,0-7.044-7.541,56.348,56.348,0,0,0-8.268-6.194,46.836,46.836,0,0,0-19.348-6.8,82.5,82.5,0,0,0-8.251-.364,76.133,76.133,0,0,1-8.547-.41,26.561,26.561,0,0,1-8.342-2.336,22.851,22.851,0,0,1-8.429-7.07,109.961,109.961,0,0,1-18.965,5.3,108.315,108.315,0,0,1-19.6,1.8c-1.442,0-2.9-.03-4.334-.089a117.476,117.476,0,0,1-18.074-2.144,105.362,105.362,0,0,1-17.684-5.124,87.536,87.536,0,0,1-16.285-8.345,72.381,72.381,0,0,1-13.877-11.808,11.133,11.133,0,0,1-2.569-4.556,9.79,9.79,0,0,1-.133-4.582,35.292,35.292,0,0,1,6.363-1.627,162.364,162.364,0,0,0,32.839,14.929,132.223,132.223,0,0,0,17.522,4.322,121.539,121.539,0,0,0,18.205,1.774c.887.018,1.767.028,2.615.028a77.839,77.839,0,0,0,19.518-2.182,51.831,51.831,0,0,0,9.137-3.266,46.368,46.368,0,0,0,8.515-5.194,56.8,56.8,0,0,0,6.939-6.363A102.311,102.311,0,0,0,370.226,438.7a118.179,118.179,0,0,0,13.941-16.813A133.437,133.437,0,0,0,395.09,402.68a142.215,142.215,0,0,0,7.736-20.755,161.685,161.685,0,0,0,5.825-40.26,323.389,323.389,0,0,0-1.795-40.77l-1.372-14.3c-1.924-20.191-3.846-41.7-4.375-63.12l.158-.008a4.1,4.1,0,0,0,3.845-4.409,3.467,3.467,0,0,0-3.537-3.6c-.1,0-.2,0-.308.01-2.14.139-4.375.206-6.833.206-4.275,0-8.608-.209-12.8-.411s-8.518-.412-12.787-.412c-2.673,0-5.092.08-7.4.246-.1-5.6-.461-12.191-2.408-18.58a3.814,3.814,0,0,0-1.657-2.105,4.879,4.879,0,0,0-2.584-.75,3.294,3.294,0,0,0-3.472,2.856,121.177,121.177,0,0,0-1.259,16.614c-7.424-.1-14.969-.4-22.266-.689H327.8c-8.947-.356-18.2-.724-27.3-.724-3.547,0-6.827.054-10.026.164-2.726-2.908-4.086-7.542-5.286-11.629-.423-1.441-.822-2.8-1.261-4.037-.268-.761-.517-1.454-.76-2.119a113.788,113.788,0,0,1-6.453,20.232l-4.874.016c-12.382.058-27.018.251-41.683,1.245a292.107,292.107,0,0,0-41.195,5.455,9.623,9.623,0,0,1-3.3-6.238c-1.074-8.148-2.295-15.344-3.731-22a178.3,178.3,0,0,0-5.978-21.475l-.708-2q-.088-.248-.184-.527a108.332,108.332,0,0,1-12.758,16.5c-2.584,2.783-5.446,5.629-8.749,8.7-1.438,1.6-2.924,3.208-4.361,4.766l-.008.008c-1.486,1.611-3.023,3.278-4.516,4.937.119.612.218,1.221.3,1.808a89.756,89.756,0,0,1,.333,20.416,97.762,97.762,0,0,1-10.221,35.051l-.176,1.1a58.343,58.343,0,0,1-1.693,7.621,22.48,22.48,0,0,1-3.166,6.671,37.1,37.1,0,0,1,4.614,6.434,36.238,36.238,0,0,1,3.159,7.4,4.572,4.572,0,0,1-.774,4.123,5.523,5.523,0,0,1-4.317,2.251,4.246,4.246,0,0,1-3.267-1.509,38.945,38.945,0,0,0-8.812-7.506.706.706,0,0,1-.569.3.849.849,0,0,1-.416-.118c-3.647-2.024-8.531-3.094-14.124-3.094a43.207,43.207,0,0,0-19.117,4.315,25.928,25.928,0,0,0-7.119,5.44,26.489,26.489,0,0,0-4.679,7.184,34.259,34.259,0,0,0-2.491,17.356,55.528,55.528,0,0,0,4.812,17.688,37.346,37.346,0,0,0,4.8,7.7,25.633,25.633,0,0,0,6.507,5.742,14.542,14.542,0,0,0,7.794,2.423,18.972,18.972,0,0,0,5.046-.774,14.7,14.7,0,0,0,4.254-2.33l.8-.644a23.919,23.919,0,0,1,4.683-3.036,12.348,12.348,0,0,1,5.109-1.22,8.1,8.1,0,0,1,2.412-.377,6.9,6.9,0,0,1,3.992,1.235,7.432,7.432,0,0,1,2.667,3.585l.089.257c.122.363.258.735.4,1.129a14.873,14.873,0,0,1,1.247,6.551,14.655,14.655,0,0,1-4.071,8.771c-.4.436-.821.85-1.239,1.23,18.534,20.065,30.365,46.563,34.216,76.628a173.68,173.68,0,0,1,.05,43,177.862,177.862,0,0,1-10.2,41.539c-.824,2.2-1.73,4.447-2.77,6.88a7.464,7.464,0,0,1-3.231,3.626A9.373,9.373,0,0,1,134.9,539.708ZM66.208,386.081h0a4.5,4.5,0,0,0-3.81,2.161,3.456,3.456,0,0,0,.094,3.587l.095.154c3.6,5.677,5.642,12.119,7.614,18.348.368,1.162.784,2.478,1.195,3.732a3.871,3.871,0,0,0,3.828,2.771,4.317,4.317,0,0,0,3.477-1.657,3.455,3.455,0,0,0,.405-3.245l-.533-1.643c-.243-.757-.49-1.531-.707-2.214-2.179-6.846-4.431-13.924-8.38-20.133a3.8,3.8,0,0,0-3.278-1.863Zm29.6-294.907a3.984,3.984,0,0,0-2.655,1.051c-13.592,12.011-20.363,29.315-26.912,46.049-1.907,4.873-3.878,9.911-5.968,14.66a4.123,4.123,0,0,0,.324,4.027,4.531,4.531,0,0,0,3.638,2.1,3.156,3.156,0,0,0,2.948-2.091c2.085-4.739,4.044-9.81,5.939-14.713,6.157-15.936,12.523-32.412,25.109-43.855l.581-.521a3.383,3.383,0,0,0,1.062-3.872A4.5,4.5,0,0,0,95.811,91.173Zm212.4.027h0a4.246,4.246,0,0,0-2.757,1.062,4.641,4.641,0,0,0-1.5,2.418,3.184,3.184,0,0,0,1.813,3.744l.165.079a36.912,36.912,0,0,1,9.989,6.652,48.693,48.693,0,0,1,7.517,8.984c4.359,6.568,7.587,14.1,10.709,21.381l.305.713a3.117,3.117,0,0,0,2.923,2.1,4.539,4.539,0,0,0,3.628-2.093,4.157,4.157,0,0,0,.359-4.037l-1.144-2.652c-3.031-6.978-6.68-15.007-11.636-21.99-5.31-7.481-11.4-12.7-18.61-15.968a4.28,4.28,0,0,0-1.765-.393Zm24.809-9.466a3.205,3.205,0,0,0-2.331.987,4.324,4.324,0,0,0-1.133,2.3,4.416,4.416,0,0,0,.386,2.731,3.971,3.971,0,0,0,2.294,1.943,48.387,48.387,0,0,1,17.02,10.381,84.5,84.5,0,0,1,12.85,15.429,3.909,3.909,0,0,0,3.31,1.806,4.537,4.537,0,0,0,3.894-2.247,3.377,3.377,0,0,0-.3-3.6,94.047,94.047,0,0,0-14.92-17.678,57.4,57.4,0,0,0-19.72-11.813,4.122,4.122,0,0,0-1.346-.24ZM116.9,330.682a11.216,11.216,0,0,1-2.27-.237c-5.318-1.1-7.576-5-9.967-9.126-.7-1.211-1.427-2.462-2.236-3.641l-.6-.866q-.229-.332-.467-.68l-.033-.049c-2.056-3-4.614-6.73-7.9-7.849a1.223,1.223,0,0,1-.785-1.071.9.9,0,0,1,.525-.9l1.805-.874c3.485-1.663,7.233-3.287,11.371-3.287a17.943,17.943,0,0,1,6.044,1.091,25.751,25.751,0,0,1,8.272,4.9,18.953,18.953,0,0,1,5.489,7.71,11.967,11.967,0,0,1,.667,5.12,12.215,12.215,0,0,1-1.859,5.32,9.23,9.23,0,0,1-3.488,3.32A9.508,9.508,0,0,1,116.9,330.682Z" transform="translate(-2 14)"></path></g></g><g transform="translate(159 186)"><g><path d="M151.619 18.8389C155.997 18.7054 160.221 19.0777 164.488 20.0052C172.969 21.8463 183.214 25.0869 189.909 30.7032C188.486 26.0643 187.108 21.5083 184.182 17.5498C180.711 12.8534 176.262 9.01121 171.145 6.15888C165.959 3.26925 160.124 1.44986 154.256 0.687066C148.319 -0.0829627 139.687 -0.99896 134.656 2.80971C132.993 4.068 131.618 5.50443 130.801 7.20887C130.11 8.65161 129.83 10.2854 130.111 12.1537C130.383 13.9622 131.232 15.8643 132.514 17.3525C133.611 18.6255 135.031 19.6007 136.698 19.9035C139.844 20.4744 142.757 20.0048 145.677 19.5341L145.815 19.5118C147.725 19.2041 149.64 18.8983 151.619 18.8389ZM68.5899 18.7939C67.3734 18.9365 66.1629 19.1234 64.953 19.3156C61.423 19.8779 57.912 20.5529 54.4251 21.3397C47.8024 22.8348 41.2329 24.7226 34.789 26.8558C28.759 28.8528 22.8228 31.1096 16.8881 33.3661C16.5714 33.4866 16.2548 33.607 15.9379 33.7274C13.8425 34.5242 11.7541 35.4168 9.65927 36.3125C6.4711 37.6757 3.26831 39.048 0 40.0821C8.61076 28.1762 21.8795 19.3544 34.6466 13.0415C41.931 9.43977 49.6589 6.53533 57.4327 4.15548L61.7619 2.8546C68.1365 0.97389 75.1065 -0.763337 81.0946 2.98663C83.463 4.46984 84.9743 6.77537 85.4502 9.26784C85.917 11.7121 85.3845 14.3329 83.6967 16.5201C82.2261 18.4255 80.3936 19.5106 78.4432 19.8825C76.2905 20.293 74.0092 19.8422 71.9325 18.733C70.2687 18.6091 69.7777 18.6539 69.2855 18.7086L68.5899 18.7939ZM172.83 59.7244L172.828 59.9497C172.741 66.4124 168.374 79.5595 159.921 79.5595C151.369 79.5595 149.74 65.0475 150.102 58.9114L150.152 58.146C150.88 48.2076 154.33 38.788 159.921 38.788C169.102 38.788 172.816 53.3476 172.83 59.7244ZM37.673 61.9497L37.6717 61.7244C37.6857 55.3476 41.3997 40.788 50.5798 40.788C56.3148 40.788 59.7966 50.6968 60.3994 60.9114L60.4203 61.3279C60.6865 67.6784 58.9438 81.5595 50.5798 81.5595C42.1273 81.5595 37.7599 68.4124 37.673 61.9497ZM147.177 131.513C153.525 131.804 158.157 129.122 160.938 124.95C164.196 120.061 164.96 113.257 163.224 106.933C160.191 95.8897 153.277 85.2066 145.573 76.8504C141.601 72.5429 137.223 68.5782 132.498 65.1111C129.055 62.5831 125.144 59.6795 120.471 59.3852C120.747 64.9087 124.652 70.4113 128.173 75.4814C128.906 76.5381 129.615 77.5596 130.263 78.5386L130.794 79.3424C135.309 86.1748 139.95 93.338 142.856 100.997C143.629 103.034 144.28 105.115 144.857 107.215C145.002 107.742 145.147 108.27 145.283 108.802C145.415 109.317 145.538 109.834 145.659 110.349C145.775 110.836 145.89 111.325 145.997 111.815C145.498 111.737 145.001 111.653 144.507 111.563C143.984 111.468 143.46 111.365 142.935 111.255C135.737 109.746 129.174 106.991 122.521 104.006L118.947 102.393C115.373 100.779 111.291 100.683 108.198 102.746L106.307 104.007L105.007 101.933C93.6467 103.595 83.7275 115.826 77.654 125.068L76.9612 126.136C70.4113 136.363 62.3369 151.074 68.3401 163.282C68.7926 164.202 69.7159 164.664 70.658 164.786C71.7268 164.923 72.8946 164.645 73.6543 163.867C78.6787 158.722 80.9503 151.524 83.3018 144.204C84.6948 139.869 86.0838 135.572 87.9836 131.73C90.6671 126.304 93.6221 121.132 96.8457 116.009C97.6857 114.675 98.5757 113.374 99.4665 112.072C99.79 111.599 100.113 111.127 100.434 110.653L103.51 106.106L104.08 111.566C104.4 114.636 106.184 117.501 108.936 119.293C119.503 126.176 134.56 130.936 147.177 131.513ZM126.085 178.67C119.694 178.722 112.508 176.324 107.704 174.446L106.451 173.949C102.292 172.284 98.0204 170.372 94.835 167.163C93.8163 166.12 92.7318 164.94 92.1809 163.699C91.8583 162.972 91.7241 162.219 92.0359 161.472C93.1879 161.359 94.2795 161.211 95.3134 161.022C95.8057 160.932 96.2773 160.839 96.639 160.836C97.9505 160.828 99.248 160.992 100.544 161.156L100.607 161.164C100.798 161.188 100.989 161.212 101.18 161.236C102.205 161.363 103.226 161.5 104.245 161.637C107.208 162.035 110.156 162.43 113.163 162.573C115.333 162.678 117.609 162.556 119.906 162.431C120.043 162.423 120.181 162.416 120.319 162.408C126.145 162.089 132.125 161.761 136.607 165.835C137.809 166.928 138.311 168.304 138.311 169.706C138.311 171.409 137.594 173.143 136.5 174.504C134.023 177.584 130.211 178.636 126.085 178.67Z" transform="translate(49.94436 60.97419)" fill-rule="evenodd" stroke="none"></path></g></g><g transform="translate(123 338)"></g><g transform="translate(47 241)"></g></g></g></svg>