<svg width="1920" height="1080" viewBox="0 0 1920 1080" fill="none" xmlns="http://www.w3.org/2000/svg">
<path d="M9 217.014L1920 226.648V1080H0L9 217.014Z" fill="black"/>
<rect width="1920" height="486.761" fill="white"/>
<line x1="72" y1="546.648" x2="836" y2="546.648" stroke="black" stroke-width="8"/>
<path d="M997 163H1307V494H997V163Z" fill="#202020"/>
<path d="M0 0H530V487L0 719V0Z" fill="#D9D9D9"/>
<path d="M1558 363.192C1558 410.55 1519.09 449.009 1471 449.009C1422.91 449.009 1384 410.55 1384 363.192C1384 315.834 1422.91 277.375 1471 277.375C1519.09 277.375 1558 315.834 1558 363.192Z" fill="white" stroke="black" stroke-width="6"/>
<path d="M1693 356.004C1693 407.571 1654.08 449.009 1606.5 449.009C1558.92 449.009 1520 407.571 1520 356.004C1520 304.438 1558.92 263 1606.5 263C1654.08 263 1693 304.438 1693 356.004Z" fill="white" stroke="black" stroke-width="6"/>
<path d="M1748 381.674C1748 433.241 1709.08 474.679 1661.5 474.679C1613.92 474.679 1575 433.241 1575 381.674C1575 330.107 1613.92 288.67 1661.5 288.67C1709.08 288.67 1748 330.107 1748 381.674Z" fill="white" stroke="black" stroke-width="6"/>
<path d="M1562 452.009C1562 486.184 1528.92 514.723 1487 514.723C1445.08 514.723 1412 486.184 1412 452.009C1412 417.834 1445.08 389.295 1487 389.295C1528.92 389.295 1562 417.834 1562 452.009Z" fill="white" stroke="black" stroke-width="6"/>
<path d="M1737 463.304C1737 497.479 1703.92 526.018 1662 526.018C1620.08 526.018 1587 497.479 1587 463.304C1587 429.129 1620.08 400.589 1662 400.589C1703.92 400.589 1737 429.129 1737 463.304Z" fill="white" stroke="black" stroke-width="6"/>
<rect x="1552" y="400.589" width="52" height="431.411" fill="white" stroke="black" stroke-width="6"/>
<path d="M1624 428.393C1624 462.568 1590.92 491.107 1549 491.107C1507.08 491.107 1474 462.568 1474 428.393C1474 394.218 1507.08 365.678 1549 365.678C1590.92 365.678 1624 394.218 1624 428.393Z" fill="white" stroke="black" stroke-width="6"/>
<rect x="1456" y="768" width="255" height="135" fill="white" stroke="black" stroke-width="6"/>
</svg>
