<svg width="1922" height="1084" viewBox="0 0 1922 1084" fill="none" xmlns="http://www.w3.org/2000/svg">
<rect x="0.335632" y="3.18286" width="1920" height="540" transform="rotate(-0.0705713 0.335632 3.18286)" fill="white"/>
<path d="M9.61767 232.172L1920.63 239.318L1921.66 1080.82L1.66585 1083.18L9.61767 232.172Z" fill="black"/>
<line x1="73.0179" y1="557.094" x2="837.017" y2="556.153" stroke="black" stroke-width="8"/>
<path d="M0.335632 3.18286L1062.83 1.87418L1063.13 237.874L1.22246 723.182L0.335632 3.18286Z" fill="#D9D9D9"/>
<path d="M166.462 695.787L166.362 614.528L433.949 500.68L434.031 567.756L166.462 695.787Z" fill="white" stroke="black" stroke-width="6"/>
<path d="M163.26 610.759L113.372 592.85L387.384 478.969L427.442 496.621L163.26 610.759Z" fill="white" stroke="black" stroke-width="6"/>
<rect x="102.809" y="387.057" width="58" height="312" transform="rotate(-0.0705713 102.809 387.057)" fill="white" stroke="black" stroke-width="6"/>
<path d="M1558.78 365.456C1558.84 412.814 1519.98 451.32 1471.89 451.38C1423.8 451.439 1384.84 413.028 1384.78 365.67C1384.72 318.312 1423.59 279.805 1471.68 279.746C1519.76 279.687 1558.72 318.098 1558.78 365.456Z" fill="white" stroke="black" stroke-width="6"/>
<path d="M1693.77 358.102C1693.84 409.668 1654.97 451.154 1607.39 451.213C1559.81 451.271 1520.84 409.882 1520.77 358.315C1520.71 306.748 1559.58 265.263 1607.16 265.204C1654.74 265.145 1693.71 306.535 1693.77 358.102Z" fill="white" stroke="black" stroke-width="6"/>
<path d="M1748.81 383.704C1748.87 435.27 1710 476.756 1662.42 476.815C1614.84 476.873 1575.87 435.483 1575.81 383.917C1575.74 332.35 1614.61 290.864 1662.19 290.806C1709.77 290.747 1748.74 332.137 1748.81 383.704Z" fill="white" stroke="black" stroke-width="6"/>
<path d="M1562.89 454.267C1562.93 488.442 1529.89 517.022 1487.97 517.074C1446.05 517.126 1412.93 488.627 1412.89 454.452C1412.85 420.277 1445.89 391.697 1487.82 391.646C1529.74 391.594 1562.85 420.093 1562.89 454.267Z" fill="white" stroke="black" stroke-width="6"/>
<path d="M1737.91 465.347C1737.95 499.521 1704.91 528.102 1662.98 528.153C1621.06 528.205 1587.95 499.706 1587.91 465.531C1587.86 431.356 1620.91 402.776 1662.83 402.725C1704.75 402.673 1737.86 431.172 1737.91 465.347Z" fill="white" stroke="black" stroke-width="6"/>
<rect x="1552.83" y="402.86" width="52" height="431.411" transform="rotate(-0.0705713 1552.83 402.86)" fill="white" stroke="black" stroke-width="6"/>
<path d="M1624.86 430.575C1624.91 464.75 1591.86 493.33 1549.94 493.382C1508.02 493.433 1474.91 464.935 1474.86 430.76C1474.82 396.585 1507.86 368.005 1549.79 367.953C1591.71 367.902 1624.82 396.4 1624.86 430.575Z" fill="white" stroke="black" stroke-width="6"/>
<rect x="1423.41" y="63.4302" width="127" height="178" transform="rotate(-0.0705713 1423.41 63.4302)" fill="#202020"/>
<rect x="1439.3" y="781.411" width="255" height="135" transform="rotate(-0.0705713 1439.3 781.411)" fill="white" stroke="black" stroke-width="6"/>
</svg>
