<svg width="409" height="409" viewBox="0 0 409 409" fill="none" xmlns="http://www.w3.org/2000/svg">
<path d="M25 2H384C396.703 2 407 12.2975 407 25V384C407 396.703 396.703 407 384 407H25C12.2974 407 2 396.703 2 384V25C2 12.2974 12.2975 2 25 2Z" fill="white" stroke="black" stroke-width="4"/>
<mask id="path-2-inside-1_25_213" fill="white">
<path d="M76 180H125.121V229.121H76V180Z"/>
</mask>
<path d="M76 180H125.121V229.121H76V180Z" fill="white"/>
<path d="M76 180V175H71V180H76ZM76 185H125.121V175H76V185ZM81 229.121V180H71V229.121H81Z" fill="black" mask="url(#path-2-inside-1_25_213)"/>
<rect x="176.621" y="231.557" width="44.1207" height="44.1207" fill="white" stroke="black" stroke-width="5"/>
<rect x="176.621" y="182.436" width="44.1207" height="44.1207" fill="white" stroke="black" stroke-width="5"/>
<mask id="path-6-inside-2_25_213" fill="white">
<path d="M125 229.057H174.121V278.177H125V229.057Z"/>
</mask>
<path d="M125 229.057H174.121V278.177H125V229.057Z" fill="white"/>
<path d="M174.121 278.177V283.177H179.121V278.177H174.121ZM169.121 229.057V278.177H179.121V229.057H169.121ZM174.121 273.177H125V283.177H174.121V273.177Z" fill="black" mask="url(#path-6-inside-2_25_213)"/>
<mask id="path-8-inside-3_25_213" fill="white">
<path d="M125 180H174.121V229.121H125V180Z"/>
</mask>
<path d="M125 180H174.121V229.121H125V180Z" fill="white"/>
<path d="M174.121 180H179.121V175H174.121V180ZM125 185H174.121V175H125V185ZM169.121 180V229.121H179.121V180H169.121Z" fill="black" mask="url(#path-8-inside-3_25_213)"/>
<mask id="path-10-inside-4_25_213" fill="white">
<path d="M75.8799 229.057H125.001V278.177H75.8799V229.057Z"/>
</mask>
<path d="M75.8799 229.057H125.001V278.177H75.8799V229.057Z" fill="white"/>
<path d="M75.8799 278.177H70.8799V283.177H75.8799V278.177ZM125.001 273.177H75.8799V283.177H125.001V273.177ZM80.8799 278.177V229.057H70.8799V278.177H80.8799Z" fill="black" mask="url(#path-10-inside-4_25_213)"/>
<mask id="path-12-inside-5_25_213" fill="white">
<path d="M75.8799 130.808H125.001V179.929H75.8799V130.808Z"/>
</mask>
<path d="M75.8799 130.808H125.001V179.929H75.8799V130.808Z" fill="white"/>
<path d="M75.8799 130.808V125.808H70.8799V130.808H75.8799ZM75.8799 179.929H70.8799V184.929H75.8799V179.929ZM75.8799 135.808H125.001V125.808H75.8799V135.808ZM125.001 174.929H75.8799V184.929H125.001V174.929ZM80.8799 179.929V130.808H70.8799V179.929H80.8799Z" fill="black" mask="url(#path-12-inside-5_25_213)"/>
<mask id="path-14-inside-6_25_213" fill="white">
<path d="M125.008 130.808H174.128V179.929H125.008V130.808Z"/>
</mask>
<path d="M125.008 130.808H174.128V179.929H125.008V130.808Z" fill="white"/>
<path d="M174.128 130.808H179.128V125.808H174.128V130.808ZM174.128 179.929V184.929H179.128V179.929H174.128ZM125.008 135.808H174.128V125.808H125.008V135.808ZM169.128 130.808V179.929H179.128V130.808H169.128ZM174.128 174.929H125.008V184.929H174.128V174.929Z" fill="black" mask="url(#path-14-inside-6_25_213)"/>
<mask id="path-16-inside-7_25_213" fill="white">
<path d="M174 131H223.121V180.121H174V131Z"/>
</mask>
<path d="M174 131H223.121V180.121H174V131Z" fill="white"/>
<path d="M174 131V126H169V131H174ZM223.121 131H228.121V126H223.121V131ZM223.121 180.121V185.121H228.121V180.121H223.121ZM174 180.121H169V185.121H174V180.121ZM174 136H223.121V126H174V136ZM218.121 131V180.121H228.121V131H218.121ZM223.121 175.121H174V185.121H223.121V175.121ZM179 180.121V131H169V180.121H179Z" fill="black" mask="url(#path-16-inside-7_25_213)"/>
<mask id="path-18-inside-8_25_213" fill="white">
<path d="M223.264 179.936H272.384V229.057H223.264V179.936Z"/>
</mask>
<path d="M223.264 179.936H272.384V229.057H223.264V179.936Z" fill="white"/>
<path d="M223.264 179.936V174.936H218.264V179.936H223.264ZM272.384 179.936H277.384V174.936H272.384V179.936ZM223.264 184.936H272.384V174.936H223.264V184.936ZM267.384 179.936V229.057H277.384V179.936H267.384ZM228.264 229.057V179.936H218.264V229.057H228.264Z" fill="black" mask="url(#path-18-inside-8_25_213)"/>
<rect x="274.892" y="182.436" width="44.1207" height="44.1207" fill="white" stroke="black" stroke-width="5"/>
<rect x="274.892" y="231.564" width="44.1207" height="44.1207" fill="white" stroke="black" stroke-width="5"/>
<rect x="274.892" y="182.436" width="44.1207" height="44.1207" fill="white" stroke="black" stroke-width="5"/>
<mask id="path-23-inside-9_25_213" fill="white">
<path d="M223.264 229.064H272.384V278.185H223.264V229.064Z"/>
</mask>
<path d="M223.264 229.064H272.384V278.185H223.264V229.064Z" fill="white"/>
<path d="M272.384 278.185V283.185H277.384V278.185H272.384ZM223.264 278.185H218.264V283.185H223.264V278.185ZM267.384 229.064V278.185H277.384V229.064H267.384ZM272.384 273.185H223.264V283.185H272.384V273.185ZM228.264 278.185V229.064H218.264V278.185H228.264Z" fill="black" mask="url(#path-23-inside-9_25_213)"/>
<rect x="176.636" y="84.3799" width="44.1207" height="44.1207" fill="white" stroke="black" stroke-width="5"/>
<rect x="176.5" y="280.5" width="44.1207" height="44.1207" fill="white" stroke="black" stroke-width="5"/>
<path d="M197.634 196.039C198.019 195.372 198.981 195.372 199.366 196.039L206.261 207.981C206.646 208.647 206.165 209.481 205.395 209.481H191.605C190.836 209.481 190.354 208.647 190.739 207.981L197.634 196.039Z" fill="black"/>
<circle cx="296.617" cy="203.617" r="7.61748" fill="black"/>
</svg>
